<svg width="2761" height="1647" xmlns="http://www.w3.org/2000/svg" xmlns:xlink="http://www.w3.org/1999/xlink" xml:space="preserve" overflow="hidden"><defs><filter id="fx0" x="-10%" y="-10%" width="120%" height="120%" filterUnits="userSpaceOnUse" primitiveUnits="userSpaceOnUse"><feComponentTransfer color-interpolation-filters="sRGB"><feFuncR type="discrete" tableValues="0 0"/><feFuncG type="discrete" tableValues="0 0"/><feFuncB type="discrete" tableValues="0 0"/><feFuncA type="linear" slope="0.431373" intercept="0"/></feComponentTransfer><feGaussianBlur stdDeviation="1.68117 1.68117"/></filter><filter id="fx1" x="-10%" y="-10%" width="120%" height="120%" filterUnits="userSpaceOnUse" primitiveUnits="userSpaceOnUse"><feComponentTransfer color-interpolation-filters="sRGB"><feFuncR type="discrete" tableValues="0 0"/><feFuncG type="discrete" tableValues="0 0"/><feFuncB type="discrete" tableValues="0 0"/><feFuncA type="linear" slope="0.431373" intercept="0"/></feComponentTransfer><feGaussianBlur stdDeviation="1.68117 1.68117"/></filter><filter id="fx2" x="-10%" y="-10%" width="120%" height="120%" filterUnits="userSpaceOnUse" primitiveUnits="userSpaceOnUse"><feComponentTransfer color-interpolation-filters="sRGB"><feFuncR type="discrete" tableValues="0 0"/><feFuncG type="discrete" tableValues="0 0"/><feFuncB type="discrete" tableValues="0 0"/><feFuncA type="linear" slope="0.431373" intercept="0"/></feComponentTransfer><feGaussianBlur stdDeviation="1.68117 1.68117"/></filter><filter id="fx3" x="-10%" y="-10%" width="120%" height="120%" filterUnits="userSpaceOnUse" primitiveUnits="userSpaceOnUse"><feComponentTransfer color-interpolation-filters="sRGB"><feFuncR type="discrete" tableValues="0 0"/><feFuncG type="discrete" tableValues="0 0"/><feFuncB type="discrete" tableValues="0 0"/><feFuncA type="linear" slope="0.431373" intercept="0"/></feComponentTransfer><feGaussianBlur stdDeviation="1.68117 1.68117"/></filter><filter id="fx4" x="-10%" y="-10%" width="120%" height="120%" filterUnits="userSpaceOnUse" primitiveUnits="userSpaceOnUse"><feComponentTransfer color-interpolation-filters="sRGB"><feFuncR type="discrete" tableValues="0 0"/><feFuncG type="discrete" tableValues="0 0"/><feFuncB type="discrete" tableValues="0 0"/><feFuncA type="linear" slope="0.431373" intercept="0"/></feComponentTransfer><feGaussianBlur stdDeviation="1.68117 1.68117"/></filter><filter id="fx5" x="-10%" y="-10%" width="120%" height="120%" filterUnits="userSpaceOnUse" primitiveUnits="userSpaceOnUse"><feComponentTransfer color-interpolation-filters="sRGB"><feFuncR type="discrete" tableValues="0 0"/><feFuncG type="discrete" tableValues="0 0"/><feFuncB type="discrete" tableValues="0 0"/><feFuncA type="linear" slope="0.431373" intercept="0"/></feComponentTransfer><feGaussianBlur stdDeviation="1.68117 1.68117"/></filter><filter id="fx6" x="-10%" y="-10%" width="120%" height="120%" filterUnits="userSpaceOnUse" primitiveUnits="userSpaceOnUse"><feComponentTransfer color-interpolation-filters="sRGB"><feFuncR type="discrete" tableValues="0 0"/><feFuncG type="discrete" tableValues="0 0"/><feFuncB type="discrete" tableValues="0 0"/><feFuncA type="linear" slope="0.431373" intercept="0"/></feComponentTransfer><feGaussianBlur stdDeviation="1.68117 1.68117"/></filter><clipPath id="clip7"><rect x="97" y="56" width="2761" height="1647"/></clipPath><clipPath id="clip8"><rect x="55" y="49" width="45" height="86"/></clipPath><clipPath id="clip9"><rect x="53" y="49" width="47" height="86"/></clipPath><clipPath id="clip10"><rect x="55" y="49" width="45" height="86"/></clipPath><clipPath id="clip11"><rect x="53" y="49" width="47" height="86"/></clipPath><clipPath id="clip12"><rect x="53" y="49" width="47" height="86"/></clipPath></defs><g clip-path="url(#clip7)" transform="translate(-97 -56)"><path d="M501.471 566.961 994.53 566.961 994.53 810.014 501.471 810.014Z" fill="#D9F2D0" fill-rule="evenodd"/><path d="M994.53 566.961 1514.76 566.961 1514.76 810.014 994.53 810.014Z" fill="#D9F2D0" fill-rule="evenodd"/><path d="M1514.76 566.961 2000.06 566.961 2000.06 810.014 1514.76 810.014Z" fill="#D9F2D0" fill-rule="evenodd"/><path d="M2000.06 566.961 2450.41 566.961 2450.41 810.014 2000.06 810.014Z" fill="#FFC9C9" fill-rule="evenodd"/><path d="M2450.41 566.961 2843.18 566.961 2843.18 810.014 2450.41 810.014Z" fill="#FFC9C9" fill-rule="evenodd"/><path d="M501.471 810.014 994.53 810.014 994.53 1006.21 501.471 1006.21Z" fill="#D9F2D0" fill-rule="evenodd"/><path d="M994.53 810.014 1514.76 810.014 1514.76 1006.21 994.53 1006.21Z" fill="#D9F2D0" fill-rule="evenodd"/><path d="M1514.76 810.014 2000.06 810.014 2000.06 1006.21 1514.76 1006.21Z" fill="#D9F2D0" fill-rule="evenodd"/><path d="M2000.06 810.014 2450.41 810.014 2450.41 1006.21 2000.06 1006.21Z" fill="#FFC9C9" fill-rule="evenodd"/><path d="M2450.41 810.014 2843.18 810.014 2843.18 1006.21 2450.41 1006.21Z" fill="#D9F2D0" fill-rule="evenodd"/><path d="M501.471 1006.21 994.53 1006.21 994.53 1202.41 501.471 1202.41Z" fill="#D9F2D0" fill-rule="evenodd"/><path d="M994.53 1006.21 1514.76 1006.21 1514.76 1202.41 994.53 1202.41Z" fill="#D9F2D0" fill-rule="evenodd"/><path d="M1514.76 1006.21 2000.06 1006.21 2000.06 1202.41 1514.76 1202.41Z" fill="#D9F2D0" fill-rule="evenodd"/><path d="M2000.06 1006.21 2450.41 1006.21 2450.41 1202.41 2000.06 1202.41Z" fill="#D9F2D0" fill-rule="evenodd"/><path d="M2450.41 1006.21 2843.18 1006.21 2843.18 1202.41 2450.41 1202.41Z" fill="#D9F2D0" fill-rule="evenodd"/><path d="M501.471 1202.41 994.53 1202.41 994.53 1445.47 501.471 1445.47Z" fill="#D9F2D0" fill-rule="evenodd"/><path d="M994.53 1202.41 1514.76 1202.41 1514.76 1445.47 994.53 1445.47Z" fill="#D9F2D0" fill-rule="evenodd"/><path d="M1514.76 1202.41 2000.06 1202.41 2000.06 1445.47 1514.76 1445.47Z" fill="#D9F2D0" fill-rule="evenodd"/><path d="M2000.06 1202.41 2450.41 1202.41 2450.41 1445.47 2000.06 1445.47Z" fill="#D9F2D0" fill-rule="evenodd"/><path d="M2450.41 1202.41 2843.18 1202.41 2843.18 1445.47 2450.41 1445.47Z" fill="#D9F2D0" fill-rule="evenodd"/><path d="M501.471 1445.47 994.53 1445.47 994.53 1688.52 501.471 1688.52Z" fill="#D9F2D0" fill-rule="evenodd"/><path d="M994.53 1445.47 1514.76 1445.47 1514.76 1688.52 994.53 1688.52Z" fill="#FFC9C9" fill-rule="evenodd"/><path d="M1514.76 1445.47 2000.06 1445.47 2000.06 1688.52 1514.76 1688.52Z" fill="#D9F2D0" fill-rule="evenodd"/><path d="M2000.06 1445.47 2450.41 1445.47 2450.41 1688.52 2000.06 1688.52Z" fill="#D9F2D0" fill-rule="evenodd"/><path d="M2450.41 1445.47 2843.18 1445.47 2843.18 1688.52 2450.41 1688.52Z" fill="#FFC9C9" fill-rule="evenodd"/><path d="M97.7058 323.908 2843.18 323.908" stroke="#000000" stroke-width="10.3125" stroke-linejoin="round" stroke-miterlimit="10" fill="none" fill-rule="evenodd"/><path d="M97.7058 566.961 2843.18 566.961" stroke="#000000" stroke-width="10.3125" stroke-linejoin="round" stroke-miterlimit="10" fill="none" fill-rule="evenodd"/><path d="M97.7058 810.014 2843.18 810.014" stroke="#000000" stroke-width="10.3125" stroke-linejoin="round" stroke-miterlimit="10" fill="none" fill-rule="evenodd"/><path d="M97.7058 1006.21 2843.18 1006.21" stroke="#000000" stroke-width="10.3125" stroke-linejoin="round" stroke-miterlimit="10" fill="none" fill-rule="evenodd"/><path d="M97.7058 1202.41 2843.18 1202.41" stroke="#000000" stroke-width="10.3125" stroke-linejoin="round" stroke-miterlimit="10" fill="none" fill-rule="evenodd"/><path d="M97.7058 1445.47 2843.18 1445.47" stroke="#000000" stroke-width="10.3125" stroke-linejoin="round" stroke-miterlimit="10" fill="none" fill-rule="evenodd"/><path d="M97.7058 80.8547 2843.18 80.8547" stroke="#000000" stroke-width="10.3125" stroke-linejoin="round" stroke-miterlimit="10" fill="none" fill-rule="evenodd"/><path d="M97.7058 1688.52 2843.18 1688.52" stroke="#000000" stroke-width="10.3125" stroke-linejoin="round" stroke-miterlimit="10" fill="none" fill-rule="evenodd"/><text font-family="Jost,Jost_MSFontService,sans-serif" font-weight="700" font-size="83" transform="matrix(1 0 0 1 2584.92 228)">C </text><g clip-path="url(#clip8)" filter="url(#fx0)" transform="translate(2614 120)"><g><path d="M6.20068-37.5283C10.1183-41.1217 13.0971-44.2288 15.137-46.8496 17.1768-49.4704 18.6966-51.9425 19.6963-54.2661L21.5605-54.2661C22.8304-51.5913 24.4718-48.9976 26.4846-46.4849 28.4975-43.9722 31.4492-40.9731 35.3398-37.4878L35.3398-34.3672C29.9092-36.9069 25.7349-39.5682 22.8169-42.3511L22.8169 17.3862 18.7236 17.3862 18.7236-42.3511C16.1299-40.2977 14.1913-38.8657 12.908-38.0552 11.6246-37.2446 9.38883-36.0423 6.20068-34.4482Z" transform="matrix(1 0 0 1 56.9851 111)"/></g></g><path d="M6.20068-37.5283C10.1183-41.1217 13.0971-44.2288 15.137-46.8496 17.1768-49.4704 18.6966-51.9425 19.6963-54.2661L21.5605-54.2661C22.8304-51.5913 24.4718-48.9976 26.4846-46.4849 28.4975-43.9722 31.4492-40.9731 35.3398-37.4878L35.3398-34.3672C29.9092-36.9069 25.7349-39.5682 22.8169-42.3511L22.8169 17.3862 18.7236 17.3862 18.7236-42.3511C16.1299-40.2977 14.1913-38.8657 12.908-38.0552 11.6246-37.2446 9.38883-36.0423 6.20068-34.4482Z" transform="matrix(1 0 0 1 2667.42 228)"/><text fill="#000000" fill-opacity="0" font-family="Arial,Arial_MSFontService,sans-serif" font-size="71.6523" x="6.20068" y="8.42969">↑</text><text font-family="Jost,Jost_MSFontService,sans-serif" font-weight="700" font-size="83" transform="matrix(1 0 0 1 2708.67 228)"> </text><text font-family="Jost,Jost_MSFontService,sans-serif" font-weight="700" font-size="83" transform="matrix(1 0 0 1 2094.32 228)">Ent</text><text font-family="Jost,Jost_MSFontService,sans-serif" font-weight="700" font-size="83" transform="matrix(1 0 0 1 2218.07 228)">-</text><text font-family="Jost,Jost_MSFontService,sans-serif" font-weight="700" font-size="83" transform="matrix(1 0 0 1 2236.41 228)">2 </text><g clip-path="url(#clip9)" filter="url(#fx1)" transform="translate(2262 120)"><g><path d="M6.20068-37.5283C10.1183-41.1217 13.0971-44.2288 15.137-46.8496 17.1768-49.4704 18.6966-51.9425 19.6963-54.2661L21.5605-54.2661C22.8304-51.5913 24.4718-48.9976 26.4846-46.4849 28.4975-43.9722 31.4492-40.9731 35.3398-37.4878L35.3398-34.3672C29.9092-36.9069 25.7349-39.5682 22.8169-42.3511L22.8169 17.3862 18.7236 17.3862 18.7236-42.3511C16.1299-40.2977 14.1913-38.8657 12.908-38.0552 11.6246-37.2446 9.38883-36.0423 6.20068-34.4482Z" transform="matrix(1 0 0 1 56.4631 111)"/></g></g><path d="M6.20068-37.5283C10.1183-41.1217 13.0971-44.2288 15.137-46.8496 17.1768-49.4704 18.6966-51.9425 19.6963-54.2661L21.5605-54.2661C22.8304-51.5913 24.4718-48.9976 26.4846-46.4849 28.4975-43.9722 31.4492-40.9731 35.3398-37.4878L35.3398-34.3672C29.9092-36.9069 25.7349-39.5682 22.8169-42.3511L22.8169 17.3862 18.7236 17.3862 18.7236-42.3511C16.1299-40.2977 14.1913-38.8657 12.908-38.0552 11.6246-37.2446 9.38883-36.0423 6.20068-34.4482Z" transform="matrix(1 0 0 1 2314.9 228)"/><text fill="#000000" fill-opacity="0" font-family="Arial,Arial_MSFontService,sans-serif" font-size="71.6523" x="6.20068" y="8.42969">↑</text><text font-family="Jost,Jost_MSFontService,sans-serif" font-weight="700" font-size="83" transform="matrix(1 0 0 1 2356.15 228)"> </text><text font-family="Jost,Jost_MSFontService,sans-serif" font-weight="700" font-size="83" transform="matrix(1 0 0 1 1614.47 228)">Dist</text><text font-family="Jost,Jost_MSFontService,sans-serif" font-weight="700" font-size="83" transform="matrix(1 0 0 1 1762.28 228)">-</text><text font-family="Jost,Jost_MSFontService,sans-serif" font-weight="700" font-size="83" transform="matrix(1 0 0 1 1780.61 228)">2 </text><g clip-path="url(#clip10)" filter="url(#fx2)" transform="translate(1806 120)"><g><path d="M6.20068-37.5283C10.1183-41.1217 13.0971-44.2288 15.137-46.8496 17.1768-49.4704 18.6966-51.9425 19.6963-54.2661L21.5605-54.2661C22.8304-51.5913 24.4718-48.9976 26.4846-46.4849 28.4975-43.9722 31.4492-40.9731 35.3398-37.4878L35.3398-34.3672C29.9092-36.9069 25.7349-39.5682 22.8169-42.3511L22.8169 17.3862 18.7236 17.3862 18.7236-42.3511C16.1299-40.2977 14.1913-38.8657 12.908-38.0552 11.6246-37.2446 9.38883-36.0423 6.20068-34.4482Z" transform="matrix(1 0 0 1 56.6709 111)"/></g></g><path d="M6.20068-37.5283C10.1183-41.1217 13.0971-44.2288 15.137-46.8496 17.1768-49.4704 18.6966-51.9425 19.6963-54.2661L21.5605-54.2661C22.8304-51.5913 24.4718-48.9976 26.4846-46.4849 28.4975-43.9722 31.4492-40.9731 35.3398-37.4878L35.3398-34.3672C29.9092-36.9069 25.7349-39.5682 22.8169-42.3511L22.8169 17.3862 18.7236 17.3862 18.7236-42.3511C16.1299-40.2977 14.1913-38.8657 12.908-38.0552 11.6246-37.2446 9.38883-36.0423 6.20068-34.4482Z" transform="matrix(1 0 0 1 1859.1 228)"/><text fill="#000000" fill-opacity="0" font-family="Arial,Arial_MSFontService,sans-serif" font-size="71.6523" x="6.20068" y="8.42969">↑</text><text font-family="Jost,Jost_MSFontService,sans-serif" font-weight="700" font-size="83" transform="matrix(1 0 0 1 1900.35 228)"> </text><text font-family="Jost,Jost_MSFontService,sans-serif" font-weight="700" font-size="83" transform="matrix(1 0 0 1 1080.48 228)">BLEU</text><text font-family="Jost,Jost_MSFontService,sans-serif" font-weight="700" font-size="83" transform="matrix(1 0 0 1 1286.73 228)">-</text><text font-family="Jost,Jost_MSFontService,sans-serif" font-weight="700" font-size="83" transform="matrix(1 0 0 1 1305.06 228)">4 </text><g clip-path="url(#clip11)" filter="url(#fx3)" transform="translate(1335 120)"><g><path d="M6.20068-37.5283C10.1183-41.1217 13.0971-44.2288 15.137-46.8496 17.1768-49.4704 18.6966-51.9425 19.6963-54.2661L21.5605-54.2661C22.8304-51.5913 24.4718-48.9976 26.4846-46.4849 28.4975-43.9722 31.4492-40.9731 35.3398-37.4878L35.3398-34.3672C29.9092-36.9069 25.7349-39.5682 22.8169-42.3511L22.8169 17.3862 18.7236 17.3862 18.7236-42.3511C16.1299-40.2977 14.1913-38.8657 12.908-38.0552 11.6246-37.2446 9.38883-36.0423 6.20068-34.4482Z" transform="matrix(1 0 0 1 56.1301 111)"/></g></g><path d="M6.20068-37.5283C10.1183-41.1217 13.0971-44.2288 15.137-46.8496 17.1768-49.4704 18.6966-51.9425 19.6963-54.2661L21.5605-54.2661C22.8304-51.5913 24.4718-48.9976 26.4846-46.4849 28.4975-43.9722 31.4492-40.9731 35.3398-37.4878L35.3398-34.3672C29.9092-36.9069 25.7349-39.5682 22.8169-42.3511L22.8169 17.3862 18.7236 17.3862 18.7236-42.3511C16.1299-40.2977 14.1913-38.8657 12.908-38.0552 11.6246-37.2446 9.38883-36.0423 6.20068-34.4482Z" transform="matrix(1 0 0 1 1387.56 228)"/><text fill="#000000" fill-opacity="0" font-family="Arial,Arial_MSFontService,sans-serif" font-size="71.6523" x="6.20068" y="8.42969">↑</text><g filter="url(#fx4)" transform="translate(1376 127)"><g><path d="" transform="matrix(1 0 0 1 56.3801 104)"/></g></g><text font-family="Jost,Jost_MSFontService,sans-serif" font-weight="400" font-size="83" transform="matrix(1 0 0 1 1428.81 228)"> </text><text font-family="Jost,Jost_MSFontService,sans-serif" font-weight="700" font-size="83" transform="matrix(1 0 0 1 581.854 228)">BLEU</text><text font-family="Jost,Jost_MSFontService,sans-serif" font-weight="700" font-size="83" transform="matrix(1 0 0 1 788.104 228)">-</text><text font-family="Jost,Jost_MSFontService,sans-serif" font-weight="700" font-size="83" transform="matrix(1 0 0 1 806.438 228)">1 </text><g clip-path="url(#clip12)" filter="url(#fx5)" transform="translate(820 120)"><g><path d="M6.20068-37.5283C10.1183-41.1217 13.0971-44.2288 15.137-46.8496 17.1768-49.4704 18.6966-51.9425 19.6963-54.2661L21.5605-54.2661C22.8304-51.5913 24.4718-48.9976 26.4846-46.4849 28.4975-43.9722 31.4492-40.9731 35.3398-37.4878L35.3398-34.3672C29.9092-36.9069 25.7349-39.5682 22.8169-42.3511L22.8169 17.3862 18.7236 17.3862 18.7236-42.3511C16.1299-40.2977 14.1913-38.8657 12.908-38.0552 11.6246-37.2446 9.38883-36.0423 6.20068-34.4482Z" transform="matrix(1 0 0 1 56.4623 111)"/></g></g><path d="M6.20068-37.5283C10.1183-41.1217 13.0971-44.2288 15.137-46.8496 17.1768-49.4704 18.6966-51.9425 19.6963-54.2661L21.5605-54.2661C22.8304-51.5913 24.4718-48.9976 26.4846-46.4849 28.4975-43.9722 31.4492-40.9731 35.3398-37.4878L35.3398-34.3672C29.9092-36.9069 25.7349-39.5682 22.8169-42.3511L22.8169 17.3862 18.7236 17.3862 18.7236-42.3511C16.1299-40.2977 14.1913-38.8657 12.908-38.0552 11.6246-37.2446 9.38883-36.0423 6.20068-34.4482Z" transform="matrix(1 0 0 1 872.896 228)"/><text fill="#000000" fill-opacity="0" font-family="Arial,Arial_MSFontService,sans-serif" font-size="71.6523" x="6.20068" y="8.42969">↑</text><g filter="url(#fx6)" transform="translate(861 127)"><g><path d="" transform="matrix(1 0 0 1 56.7123 104)"/></g></g><text font-family="Jost,Jost_MSFontService,sans-serif" font-weight="400" font-size="83" transform="matrix(1 0 0 1 914.146 228)"> </text><text font-family="Jost,Jost_MSFontService,sans-serif" font-weight="700" font-size="83" transform="matrix(1 0 0 1 189.015 226)">Score</text><text font-family="Jost,Jost_MSFontService,sans-serif" font-weight="700" font-size="83" transform="matrix(1 0 0 1 410.161 226)"> </text><text font-family="Jost,Jost_MSFontService,sans-serif" font-weight="400" font-size="83" transform="matrix(1 0 0 1 2553.7 469)">73.11</text><text font-family="Jost,Jost_MSFontService,sans-serif" font-weight="400" font-size="83" transform="matrix(1 0 0 1 2739.89 469)"> </text><text font-family="Jost,Jost_MSFontService,sans-serif" font-weight="400" font-size="83" transform="matrix(1 0 0 1 2147.89 469)">7.96</text><text font-family="Jost,Jost_MSFontService,sans-serif" font-weight="400" font-size="83" transform="matrix(1 0 0 1 2302.58 469)"> </text><text font-family="Jost,Jost_MSFontService,sans-serif" font-weight="400" font-size="83" transform="matrix(1 0 0 1 1651.42 469)">23.09</text><text font-family="Jost,Jost_MSFontService,sans-serif" font-weight="400" font-size="83" transform="matrix(1 0 0 1 1863.4 469)"> </text><text font-family="Jost,Jost_MSFontService,sans-serif" font-weight="400" font-size="83" transform="matrix(1 0 0 1 1170.71 469)">4.99</text><text font-family="Jost,Jost_MSFontService,sans-serif" font-weight="400" font-size="83" transform="matrix(1 0 0 1 1338.58 469)"> </text><text font-family="Jost,Jost_MSFontService,sans-serif" font-weight="400" font-size="83" transform="matrix(1 0 0 1 642.01 469)">25.22</text><text font-family="Jost,Jost_MSFontService,sans-serif" font-weight="400" font-size="83" transform="matrix(1 0 0 1 853.99 469)"> </text><text font-family="Jost,Jost_MSFontService,sans-serif" font-weight="400" font-size="83" transform="matrix(1 0 0 1 219.38 469)">1.00</text><text font-family="Jost,Jost_MSFontService,sans-serif" font-weight="400" font-size="83" transform="matrix(1 0 0 1 379.797 469)"> </text><text font-family="Jost,Jost_MSFontService,sans-serif" font-weight="400" font-size="83" transform="matrix(1 0 0 1 2541.66 712)">59.40</text><text font-family="Jost,Jost_MSFontService,sans-serif" font-weight="400" font-size="83" transform="matrix(1 0 0 1 2751.92 712)"> </text><text font-family="Jost,Jost_MSFontService,sans-serif" font-weight="400" font-size="83" transform="matrix(1 0 0 1 2147.89 712)">7.99</text><text font-family="Jost,Jost_MSFontService,sans-serif" font-weight="400" font-size="83" transform="matrix(1 0 0 1 2302.58 712)"> </text><text font-family="Jost,Jost_MSFontService,sans-serif" font-weight="400" font-size="83" transform="matrix(1 0 0 1 1649.7 712)">22.09</text><text font-family="Jost,Jost_MSFontService,sans-serif" font-weight="400" font-size="83" transform="matrix(1 0 0 1 1865.12 712)"> </text><text font-family="Jost,Jost_MSFontService,sans-serif" font-weight="400" font-size="83" transform="matrix(1 0 0 1 1172.15 712)">4.32</text><text font-family="Jost,Jost_MSFontService,sans-serif" font-weight="400" font-size="83" transform="matrix(1 0 0 1 1337.15 712)"> </text><text font-family="Jost,Jost_MSFontService,sans-serif" font-weight="400" font-size="83" transform="matrix(1 0 0 1 644.589 712)">24.87</text><text font-family="Jost,Jost_MSFontService,sans-serif" font-weight="400" font-size="83" transform="matrix(1 0 0 1 851.411 712)"> </text><text font-family="Jost,Jost_MSFontService,sans-serif" font-weight="400" font-size="83" transform="matrix(1 0 0 1 215.656 712)">0.95</text><text font-family="Jost,Jost_MSFontService,sans-serif" font-weight="400" font-size="83" transform="matrix(1 0 0 1 383.521 712)"> </text><text font-family="Jost,Jost_MSFontService,sans-serif" font-weight="400" font-size="83" transform="matrix(1 0 0 1 2542.52 932)">59.49</text><text font-family="Jost,Jost_MSFontService,sans-serif" font-weight="400" font-size="83" transform="matrix(1 0 0 1 2751.06 932)"> </text><text font-family="Jost,Jost_MSFontService,sans-serif" font-weight="400" font-size="83" transform="matrix(1 0 0 1 2149.04 932)">7.98</text><text font-family="Jost,Jost_MSFontService,sans-serif" font-weight="400" font-size="83" transform="matrix(1 0 0 1 2301.43 932)"> </text><text font-family="Jost,Jost_MSFontService,sans-serif" font-weight="400" font-size="83" transform="matrix(1 0 0 1 1657.44 932)">21.76</text><text font-family="Jost,Jost_MSFontService,sans-serif" font-weight="400" font-size="83" transform="matrix(1 0 0 1 1857.39 932)"> </text><text font-family="Jost,Jost_MSFontService,sans-serif" font-weight="400" font-size="83" transform="matrix(1 0 0 1 1171.29 932)">4.22</text><text font-family="Jost,Jost_MSFontService,sans-serif" font-weight="400" font-size="83" transform="matrix(1 0 0 1 1338.01 932)"> </text><text font-family="Jost,Jost_MSFontService,sans-serif" font-weight="400" font-size="83" transform="matrix(1 0 0 1 640.578 932)">24.66</text><text font-family="Jost,Jost_MSFontService,sans-serif" font-weight="400" font-size="83" transform="matrix(1 0 0 1 855.422 932)"> </text><text font-family="Jost,Jost_MSFontService,sans-serif" font-weight="400" font-size="83" transform="matrix(1 0 0 1 214.224 932)">0.90</text><text font-family="Jost,Jost_MSFontService,sans-serif" font-weight="400" font-size="83" transform="matrix(1 0 0 1 384.953 932)"> </text><text font-family="Jost,Jost_MSFontService,sans-serif" font-weight="400" font-size="83" transform="matrix(1 0 0 1 2541.95 1128)">59.09</text><text font-family="Jost,Jost_MSFontService,sans-serif" font-weight="400" font-size="83" transform="matrix(1 0 0 1 2751.64 1128)"> </text><text font-family="Jost,Jost_MSFontService,sans-serif" font-weight="400" font-size="83" transform="matrix(1 0 0 1 2147.03 1128)">7.90</text><text font-family="Jost,Jost_MSFontService,sans-serif" font-weight="400" font-size="83" transform="matrix(1 0 0 1 2303.44 1128)"> </text><text font-family="Jost,Jost_MSFontService,sans-serif" font-weight="400" font-size="83" transform="matrix(1 0 0 1 1657.72 1128)">21.38</text><text font-family="Jost,Jost_MSFontService,sans-serif" font-weight="400" font-size="83" transform="matrix(1 0 0 1 1857.1 1128)"> </text><text font-family="Jost,Jost_MSFontService,sans-serif" font-weight="400" font-size="83" transform="matrix(1 0 0 1 1175.87 1128)">4.19</text><text font-family="Jost,Jost_MSFontService,sans-serif" font-weight="400" font-size="83" transform="matrix(1 0 0 1 1333.42 1128)"> </text><text font-family="Jost,Jost_MSFontService,sans-serif" font-weight="400" font-size="83" transform="matrix(1 0 0 1 640.865 1128)">24.30</text><text font-family="Jost,Jost_MSFontService,sans-serif" font-weight="400" font-size="83" transform="matrix(1 0 0 1 855.135 1128)"> </text><text font-family="Jost,Jost_MSFontService,sans-serif" font-weight="400" font-size="83" transform="matrix(1 0 0 1 216.802 1128)">0.85</text><text font-family="Jost,Jost_MSFontService,sans-serif" font-weight="400" font-size="83" transform="matrix(1 0 0 1 382.375 1128)"> </text><text font-family="Jost,Jost_MSFontService,sans-serif" font-weight="400" font-size="83" transform="matrix(1 0 0 1 2547.39 1347)">57.93</text><text font-family="Jost,Jost_MSFontService,sans-serif" font-weight="400" font-size="83" transform="matrix(1 0 0 1 2746.2 1347)"> </text><text font-family="Jost,Jost_MSFontService,sans-serif" font-weight="400" font-size="83" transform="matrix(1 0 0 1 2149.04 1347)">7.86</text><text font-family="Jost,Jost_MSFontService,sans-serif" font-weight="400" font-size="83" transform="matrix(1 0 0 1 2301.43 1347)"> </text><text font-family="Jost,Jost_MSFontService,sans-serif" font-weight="400" font-size="83" transform="matrix(1 0 0 1 1648.56 1347)">20.90</text><text font-family="Jost,Jost_MSFontService,sans-serif" font-weight="400" font-size="83" transform="matrix(1 0 0 1 1866.27 1347)"> </text><text font-family="Jost,Jost_MSFontService,sans-serif" font-weight="400" font-size="83" transform="matrix(1 0 0 1 1176.16 1347)">3.97</text><text font-family="Jost,Jost_MSFontService,sans-serif" font-weight="400" font-size="83" transform="matrix(1 0 0 1 1333.14 1347)"> </text><text font-family="Jost,Jost_MSFontService,sans-serif" font-weight="400" font-size="83" transform="matrix(1 0 0 1 640.578 1347)">24.24</text><text font-family="Jost,Jost_MSFontService,sans-serif" font-weight="400" font-size="83" transform="matrix(1 0 0 1 855.422 1347)"> </text><text font-family="Jost,Jost_MSFontService,sans-serif" font-weight="400" font-size="83" transform="matrix(1 0 0 1 215.369 1347)">0.80</text><text font-family="Jost,Jost_MSFontService,sans-serif" font-weight="400" font-size="83" transform="matrix(1 0 0 1 383.807 1347)"> </text><text font-family="Jost,Jost_MSFontService,sans-serif" font-weight="400" font-size="83" transform="matrix(1 0 0 1 2545.1 1590)">59.88</text><text font-family="Jost,Jost_MSFontService,sans-serif" font-weight="400" font-size="83" transform="matrix(1 0 0 1 2748.49 1590)"> </text><text font-family="Jost,Jost_MSFontService,sans-serif" font-weight="400" font-size="83" transform="matrix(1 0 0 1 2149.9 1590)">7.79</text><text font-family="Jost,Jost_MSFontService,sans-serif" font-weight="400" font-size="83" transform="matrix(1 0 0 1 2300.57 1590)"> </text><text font-family="Jost,Jost_MSFontService,sans-serif" font-weight="400" font-size="83" transform="matrix(1 0 0 1 1651.14 1590)">20.47</text><text font-family="Jost,Jost_MSFontService,sans-serif" font-weight="400" font-size="83" transform="matrix(1 0 0 1 1863.69 1590)"> </text><text font-family="Jost,Jost_MSFontService,sans-serif" font-weight="400" font-size="83" transform="matrix(1 0 0 1 1173.01 1590)">3.99</text><text font-family="Jost,Jost_MSFontService,sans-serif" font-weight="400" font-size="83" transform="matrix(1 0 0 1 1336.29 1590)"> </text><text font-family="Jost,Jost_MSFontService,sans-serif" font-weight="400" font-size="83" transform="matrix(1 0 0 1 642.87 1590)">23.96</text><text font-family="Jost,Jost_MSFontService,sans-serif" font-weight="400" font-size="83" transform="matrix(1 0 0 1 853.13 1590)"> </text><text font-family="Jost,Jost_MSFontService,sans-serif" font-weight="400" font-size="83" transform="matrix(1 0 0 1 217.661 1590)">0.75</text><text font-family="Jost,Jost_MSFontService,sans-serif" font-weight="400" font-size="83" transform="matrix(1 0 0 1 381.515 1590)"> </text><path d="M96.9999 1689 2843.12 1689" stroke="#000000" stroke-width="27.5" stroke-miterlimit="8" fill="none" fill-rule="evenodd"/><path d="M96.9999 70.0001 2843.12 70.0005" stroke="#000000" stroke-width="27.5" stroke-miterlimit="8" fill="none" fill-rule="evenodd"/></g></svg>