<svg width="1280" height="720" xmlns="http://www.w3.org/2000/svg" xmlns:xlink="http://www.w3.org/1999/xlink" overflow="hidden"><g><rect x="0" y="0" width="1280" height="720" fill="#FFFFFF"/><path d="M973 388 1027.91 388 1027.91 390 1025.91 388 1060.83 388 1060.83 392 1023.91 392 1023.91 390 1025.91 392 973 392ZM1058.83 380 1078.83 390 1058.83 400Z"/><rect x="1079" y="88" width="190" height="514" fill="#ECECEC"/><path d="M1176 208 1176 270.313 1174 270.313 1176 268.313 1176 310.626 1172 310.626 1172 266.313 1174 266.313 1172 268.313 1172 208ZM1184 308.626 1174 328.626 1164 308.626Z"/><path d="M249 484 296.058 484 296.058 486 294.058 484 321.116 484 321.116 488 292.058 488 292.058 486 294.058 488 249 488ZM319.116 476 339.116 486 319.116 496Z"/><rect x="11" y="91" width="247" height="268" fill="#ECECEC"/><path d="M37 122.5C37 118.91 39.9102 116 43.5002 116L225.5 116C229.09 116 232 118.91 232 122.5L232 148.5C232 152.09 229.09 155 225.5 155L43.5002 155C39.9102 155 37 152.09 37 148.5Z" stroke="#000000" stroke-width="2" stroke-miterlimit="8" fill="#C1E5F5" fill-rule="evenodd"/><text font-family="Jost SemiBold,Jost SemiBold_MSFontService,sans-serif" font-weight="600" font-size="21.3333" transform="translate(68.6783 142)">Persona Facts</text><text font-family="Jost SemiBold,Jost SemiBold_MSFontService,sans-serif" font-weight="600" font-size="21.3333" transform="translate(200.345 142)"></text><g><g><g><path d="M26.95 4.9C26.95 3.54484 25.8552 2.45 24.5 2.45 23.1448 2.45 22.05 3.54484 22.05 4.9L22.05 9.8 14.7 9.8C10.6422 9.8 7.35 13.0922 7.35 17.15L7.35 34.3C7.35 38.3578 10.6422 41.65 14.7 41.65L34.3 41.65C38.3578 41.65 41.65 38.3578 41.65 34.3L41.65 17.15C41.65 13.0922 38.3578 9.8 34.3 9.8L26.95 9.8 26.95 4.9ZM12.25 33.075C12.25 32.0567 13.0692 31.2375 14.0875 31.2375L16.5375 31.2375C17.5558 31.2375 18.375 32.0567 18.375 33.075 18.375 34.0933 17.5558 34.9125 16.5375 34.9125L14.0875 34.9125C13.0692 34.9125 12.25 34.0933 12.25 33.075ZM21.4375 33.075C21.4375 32.0567 22.2567 31.2375 23.275 31.2375L25.725 31.2375C26.7433 31.2375 27.5625 32.0567 27.5625 33.075 27.5625 34.0933 26.7433 34.9125 25.725 34.9125L23.275 34.9125C22.2567 34.9125 21.4375 34.0933 21.4375 33.075ZM30.625 33.075C30.625 32.0567 31.4442 31.2375 32.4625 31.2375L34.9125 31.2375C35.9308 31.2375 36.75 32.0567 36.75 33.075 36.75 34.0933 35.9308 34.9125 34.9125 34.9125L32.4625 34.9125C31.4442 34.9125 30.625 34.0933 30.625 33.075ZM17.15 18.375C19.1789 18.375 20.825 20.0211 20.825 22.05 20.825 24.0789 19.1789 25.725 17.15 25.725 15.1211 25.725 13.475 24.0789 13.475 22.05 13.475 20.0211 15.1211 18.375 17.15 18.375ZM28.175 22.05C28.175 20.0211 29.8211 18.375 31.85 18.375 33.8789 18.375 35.525 20.0211 35.525 22.05 35.525 24.0789 33.8789 25.725 31.85 25.725 29.8211 25.725 28.175 24.0789 28.175 22.05ZM4.9 22.05C4.9 20.6948 3.80516 19.6 2.45 19.6 1.09484 19.6 0 20.6948 0 22.05L0 29.4C0 30.7552 1.09484 31.85 2.45 31.85 3.80516 31.85 4.9 30.7552 4.9 29.4L4.9 22.05ZM46.55 19.6C45.1948 19.6 44.1 20.6948 44.1 22.05L44.1 29.4C44.1 30.7552 45.1948 31.85 46.55 31.85 47.9052 31.85 49 30.7552 49 29.4L49 22.05C49 20.6948 47.9052 19.6 46.55 19.6Z" transform="matrix(1.02041 0 0 1 182 272)"/></g></g></g><path d="M100 196.5C100 192.91 102.91 190 106.5 190L116.333 190 116.333 190 140.833 190 191.5 190C195.09 190 198 192.91 198 196.5L198 212.75 198 212.75 198 222.5 198 222.5C198 226.09 195.09 229 191.5 229L140.833 229 116.333 229 116.333 229 106.5 229C102.91 229 100 226.09 100 222.5L100 222.5 85.0874 222.068 100 212.75Z" stroke="#042433" stroke-width="2" stroke-miterlimit="8" fill="#C1E5F5" fill-rule="evenodd"/><text font-family="Jost SemiBold,Jost SemiBold_MSFontService,sans-serif" font-weight="600" font-size="21.3333" transform="translate(118.258 216)">Query</text><text font-family="Jost SemiBold,Jost SemiBold_MSFontService,sans-serif" font-weight="600" font-size="21.3333" transform="translate(179.592 216)"></text><g><g><g><path d="M61.5 212.887C66.5761 212.887 70.6875 208.776 70.6875 203.7 70.6875 198.624 66.5761 194.512 61.5 194.512 56.4239 194.512 52.3125 198.624 52.3125 203.7 52.3125 208.776 56.4239 212.887 61.5 212.887ZM59.2261 217.175C51.6847 217.175 45.575 223.285 45.575 230.826 45.575 232.082 46.5933 233.1 47.8489 233.1L75.1511 233.1C76.4067 233.1 77.425 232.082 77.425 230.826 77.425 223.285 71.3153 217.175 63.7739 217.175L59.2261 217.175Z"/></g></g></g><text font-family="Jost SemiBold,Jost SemiBold_MSFontService,sans-serif" font-weight="600" font-size="24" transform="translate(90.5114 174)">…………</text><path d="M46 262.334C46 256.626 50.6265 252 56.3335 252L114.833 252 114.833 252 144.333 252 153.666 252C159.374 252 164 256.626 164 262.334L164 288.167 175.419 306.163 164 303.667 164 303.666C164 309.374 159.374 314 153.666 314L144.333 314 114.833 314 114.833 314 56.3335 314C50.6265 314 46 309.374 46 303.666L46 303.667 46 288.167 46 288.167Z" stroke="#042433" stroke-width="2" stroke-miterlimit="8" fill="#D9F2D0" fill-rule="evenodd"/><text font-family="Jost SemiBold,Jost SemiBold_MSFontService,sans-serif" font-weight="600" font-size="21.3333" transform="translate(65.3684 277)">Original</text><text font-family="Jost SemiBold,Jost SemiBold_MSFontService,sans-serif" font-weight="600" font-size="21.3333" transform="translate(58.4484 303)">Response</text><text font-family="Jost SemiBold,Jost SemiBold_MSFontService,sans-serif" font-weight="600" font-size="21.3333" transform="translate(151.115 303)"></text><text font-family="Jost SemiBold,Jost SemiBold_MSFontService,sans-serif" font-weight="600" font-size="24" transform="translate(90.5116 342)">…………</text><rect x="11" y="454" width="247" height="64" stroke="#000000" stroke-width="2" stroke-miterlimit="8" fill="#FFFFCC"/><text font-family="Jost SemiBold,Jost SemiBold_MSFontService,sans-serif" font-weight="600" font-size="21.3333" transform="translate(27.5947 480)">MASKED LANGUAGE</text><text font-family="Jost SemiBold,Jost SemiBold_MSFontService,sans-serif" font-weight="600" font-size="21.3333" transform="translate(42.8414 506)">MODEL (BART)</text><text font-family="Segoe UI Emoji,Segoe UI Emoji_MSFontService,sans-serif" font-weight="400" font-size="21.3333" transform="translate(196.841 506)">❄️</text><text font-family="Jost SemiBold,Jost SemiBold_MSFontService,sans-serif" font-weight="600" font-size="21.3333" transform="translate(226.175 506)"></text><path d="M0-2 72.0665-2 72.0665 61.9765 70.0665 59.9765 122.133 59.9765 122.133 63.9765 68.0665 63.9765 68.0665 0 70.0665 2 0 2ZM120.133 51.9765 140.133 61.9765 120.133 71.9765Z" transform="matrix(1.83697e-16 1 1 -1.83697e-16 73 314)"/><rect x="454" y="632" width="174" height="64" stroke="#000000" stroke-width="2" stroke-miterlimit="8" fill="#FFFFCC"/><text font-family="Jost SemiBold,Jost SemiBold_MSFontService,sans-serif" font-weight="600" font-size="21.3333" transform="translate(465.726 670)">BERTSCORE</text><text font-family="Segoe UI Emoji,Segoe UI Emoji_MSFontService,sans-serif" font-weight="400" font-size="21.3333" transform="translate(586.893 670)">❄️</text><text font-family="Jost SemiBold,Jost SemiBold_MSFontService,sans-serif" font-weight="600" font-size="21.3333" transform="translate(616.226 670)"></text><rect x="734" y="88" width="247" height="608" fill="#ECECEC"/><path d="M761 120.5C761 116.91 763.91 114 767.5 114L948.5 114C952.09 114 955 116.91 955 120.5L955 146.5C955 150.09 952.09 153 948.5 153L767.5 153C763.91 153 761 150.09 761 146.5Z" stroke="#000000" stroke-width="2" stroke-miterlimit="8" fill="#C1E5F5" fill-rule="evenodd"/><text font-family="Jost SemiBold,Jost SemiBold_MSFontService,sans-serif" font-weight="600" font-size="21.3333" transform="translate(791.713 140)">Persona Facts</text><text font-family="Jost SemiBold,Jost SemiBold_MSFontService,sans-serif" font-weight="600" font-size="21.3333" transform="translate(923.38 140)"></text><g><g><g><path d="M941.95 294.9C941.95 293.545 940.855 292.45 939.5 292.45 938.145 292.45 937.05 293.545 937.05 294.9L937.05 299.8 929.7 299.8C925.642 299.8 922.35 303.092 922.35 307.15L922.35 324.3C922.35 328.358 925.642 331.65 929.7 331.65L949.3 331.65C953.358 331.65 956.65 328.358 956.65 324.3L956.65 307.15C956.65 303.092 953.358 299.8 949.3 299.8L941.95 299.8 941.95 294.9ZM927.25 323.075C927.25 322.057 928.069 321.237 929.088 321.237L931.537 321.237C932.556 321.237 933.375 322.057 933.375 323.075 933.375 324.093 932.556 324.913 931.537 324.913L929.088 324.913C928.069 324.913 927.25 324.093 927.25 323.075ZM936.438 323.075C936.438 322.057 937.257 321.237 938.275 321.237L940.725 321.237C941.743 321.237 942.562 322.057 942.562 323.075 942.562 324.093 941.743 324.913 940.725 324.913L938.275 324.913C937.257 324.913 936.438 324.093 936.438 323.075ZM945.625 323.075C945.625 322.057 946.444 321.237 947.463 321.237L949.912 321.237C950.931 321.237 951.75 322.057 951.75 323.075 951.75 324.093 950.931 324.913 949.912 324.913L947.463 324.913C946.444 324.913 945.625 324.093 945.625 323.075ZM932.15 308.375C934.179 308.375 935.825 310.021 935.825 312.05 935.825 314.079 934.179 315.725 932.15 315.725 930.121 315.725 928.475 314.079 928.475 312.05 928.475 310.021 930.121 308.375 932.15 308.375ZM943.175 312.05C943.175 310.021 944.821 308.375 946.85 308.375 948.879 308.375 950.525 310.021 950.525 312.05 950.525 314.079 948.879 315.725 946.85 315.725 944.821 315.725 943.175 314.079 943.175 312.05ZM919.9 312.05C919.9 310.695 918.805 309.6 917.45 309.6 916.095 309.6 915 310.695 915 312.05L915 319.4C915 320.755 916.095 321.85 917.45 321.85 918.805 321.85 919.9 320.755 919.9 319.4L919.9 312.05ZM961.55 309.6C960.195 309.6 959.1 310.695 959.1 312.05L959.1 319.4C959.1 320.755 960.195 321.85 961.55 321.85 962.905 321.85 964 320.755 964 319.4L964 312.05C964 310.695 962.905 309.6 961.55 309.6Z"/></g></g></g><path d="M823 194.333C823 190.836 825.836 188 829.333 188L839.333 188 839.333 188 863.833 188 914.667 188C918.164 188 921 190.836 921 194.333L921 210.167 921 210.167 921 219.667 921 219.667C921 223.164 918.164 226 914.667 226L863.833 226 839.333 226 839.333 226 829.333 226C825.836 226 823 223.164 823 219.667L823 219.667 808.087 219.245 823 210.167Z" stroke="#042433" stroke-width="2" stroke-miterlimit="8" fill="#C1E5F5" fill-rule="evenodd"/><text font-family="Jost SemiBold,Jost SemiBold_MSFontService,sans-serif" font-weight="600" font-size="21.3333" transform="translate(841.293 213)">Query</text><text font-family="Jost SemiBold,Jost SemiBold_MSFontService,sans-serif" font-weight="600" font-size="21.3333" transform="translate(902.627 213)"></text><g><g><g><path d="M784.5 210.887C789.576 210.887 793.688 206.776 793.688 201.7 793.688 196.624 789.576 192.512 784.5 192.512 779.424 192.512 775.312 196.624 775.312 201.7 775.312 206.776 779.424 210.887 784.5 210.887ZM782.226 215.175C774.685 215.175 768.575 221.285 768.575 228.826 768.575 230.082 769.593 231.1 770.849 231.1L798.151 231.1C799.407 231.1 800.425 230.082 800.425 228.826 800.425 221.285 794.315 215.175 786.774 215.175L782.226 215.175Z"/></g></g></g><text font-family="Jost SemiBold,Jost SemiBold_MSFontService,sans-serif" font-weight="600" font-size="24" transform="translate(813.546 171)">…………</text><path d="M756 264C756 256.268 762.268 250 770 250L838.833 250 838.833 250 874.333 250 884 250C891.732 250 898 256.268 898 264L898 299 911.741 323.382 898 320 898 320C898 327.732 891.732 334 884 334L874.333 334 838.833 334 838.833 334 770 334C762.268 334 756 327.732 756 320L756 320 756 299 756 299Z" stroke="#042433" stroke-width="2" stroke-miterlimit="8" fill="#D9F2D0" fill-rule="evenodd"/><text font-family="Jost SemiBold,Jost SemiBold_MSFontService,sans-serif" font-weight="600" font-size="21.3333" transform="translate(775.882 273)">Max Score</text><text font-family="Jost SemiBold,Jost SemiBold_MSFontService,sans-serif" font-weight="600" font-size="21.3333" transform="translate(878.049 273)"></text><text font-family="Jost SemiBold,Jost SemiBold_MSFontService,sans-serif" font-weight="600" font-size="21.3333" transform="translate(777.382 299)">+ Original</text><text font-family="Jost SemiBold,Jost SemiBold_MSFontService,sans-serif" font-weight="600" font-size="21.3333" transform="translate(780.636 324)">Response</text><text font-family="Jost SemiBold,Jost SemiBold_MSFontService,sans-serif" font-weight="600" font-size="21.3333" transform="translate(873.302 324)"></text><text font-family="Jost SemiBold,Jost SemiBold_MSFontService,sans-serif" font-weight="600" font-size="24" transform="translate(813.546 684)">…………</text><path d="M787 370.167C787 362.343 793.343 356 801.167 356L913.833 356C921.657 356 928 362.343 928 370.167L928 426.833C928 434.657 921.657 441 913.833 441L801.167 441C793.343 441 787 434.657 787 426.833Z" stroke="#042433" stroke-width="2" stroke-miterlimit="8" fill="#FBE3D6" fill-rule="evenodd"/><text font-family="Jost SemiBold,Jost SemiBold_MSFontService,sans-serif" font-weight="600" font-size="21.3333" transform="translate(811.216 379)">Score</text><text font-family="Jost SemiBold,Jost SemiBold_MSFontService,sans-serif" font-weight="600" font-size="21.3333" transform="translate(873.05 379)">1</text><text font-family="Jost SemiBold,Jost SemiBold_MSFontService,sans-serif" font-weight="600" font-size="21.3333" transform="translate(889.883 379)">+</text><text font-family="Jost SemiBold,Jost SemiBold_MSFontService,sans-serif" font-weight="600" font-size="21.3333" transform="translate(801.796 405)">Augmented</text><text font-family="Jost SemiBold,Jost SemiBold_MSFontService,sans-serif" font-weight="600" font-size="21.3333" transform="translate(802.796 430)">Response</text><text font-family="Jost SemiBold,Jost SemiBold_MSFontService,sans-serif" font-weight="600" font-size="21.3333" transform="translate(901.796 430)">1</text><text font-family="Jost SemiBold,Jost SemiBold_MSFontService,sans-serif" font-weight="600" font-size="21.3333" transform="translate(912.296 430)"></text><text font-family="Jost SemiBold,Jost SemiBold_MSFontService,sans-serif" font-weight="600" font-size="24" transform="translate(813.546 608)">…………</text><path d="M787 475C787 467.268 793.268 461 801 461L914 461C921.732 461 928 467.268 928 475L928 531C928 538.732 921.732 545 914 545L801 545C793.268 545 787 538.732 787 531Z" stroke="#042433" stroke-width="2" stroke-miterlimit="8" fill="#F2CFEE" fill-rule="evenodd"/><text font-family="Jost SemiBold,Jost SemiBold_MSFontService,sans-serif" font-weight="600" font-size="21.3333" transform="translate(809.716 484)">Score</text><text font-family="Jost SemiBold,Jost SemiBold_MSFontService,sans-serif" font-weight="600" font-size="21.3333" transform="translate(871.55 484)">2</text><text font-family="Jost SemiBold,Jost SemiBold_MSFontService,sans-serif" font-weight="600" font-size="21.3333" transform="translate(891.383 484)">+</text><text font-family="Jost SemiBold,Jost SemiBold_MSFontService,sans-serif" font-weight="600" font-size="21.3333" transform="translate(801.796 510)">Augmented</text><text font-family="Jost SemiBold,Jost SemiBold_MSFontService,sans-serif" font-weight="600" font-size="21.3333" transform="translate(801.296 535)">Response</text><text font-family="Jost SemiBold,Jost SemiBold_MSFontService,sans-serif" font-weight="600" font-size="21.3333" transform="translate(900.296 535)">2</text><text font-family="Jost SemiBold,Jost SemiBold_MSFontService,sans-serif" font-weight="600" font-size="21.3333" transform="translate(913.796 535)"></text><path d="M784 594.167C784 586.343 790.343 580 798.167 580L916.833 580C924.657 580 931 586.343 931 594.167L931 650.833C931 658.657 924.657 665 916.833 665L798.167 665C790.343 665 784 658.657 784 650.833Z" stroke="#042433" stroke-width="2" stroke-miterlimit="8" fill="#C6C6FA" fill-rule="evenodd"/><text font-family="Jost SemiBold,Jost SemiBold_MSFontService,sans-serif" font-weight="600" font-size="21.3333" transform="translate(808.043 603)">Score N +</text><text font-family="Jost SemiBold,Jost SemiBold_MSFontService,sans-serif" font-weight="600" font-size="21.3333" transform="translate(801.796 629)">Augmented</text><text font-family="Jost SemiBold,Jost SemiBold_MSFontService,sans-serif" font-weight="600" font-size="21.3333" transform="translate(799.63 654)">Response N</text><text font-family="Jost SemiBold,Jost SemiBold_MSFontService,sans-serif" font-weight="600" font-size="21.3333" transform="translate(915.463 654)"></text><text font-family="Jost SemiBold,Jost SemiBold_MSFontService,sans-serif" font-weight="600" font-size="24" transform="translate(813.546 565)">…………</text><rect x="339" y="88" width="287" height="514" fill="#ECECEC"/><path d="M386 120.5C386 116.91 388.91 114 392.5 114L573.5 114C577.09 114 580 116.91 580 120.5L580 146.5C580 150.09 577.09 153 573.5 153L392.5 153C388.91 153 386 150.09 386 146.5Z" stroke="#000000" stroke-width="2" stroke-miterlimit="8" fill="#C1E5F5" fill-rule="evenodd"/><text font-family="Jost SemiBold,Jost SemiBold_MSFontService,sans-serif" font-weight="600" font-size="21.3333" transform="translate(416.787 140)">Persona Facts</text><text font-family="Jost SemiBold,Jost SemiBold_MSFontService,sans-serif" font-weight="600" font-size="21.3333" transform="translate(548.453 140)"></text><g><g><g><path d="M26.95 4.9C26.95 3.54484 25.8552 2.45 24.5 2.45 23.1448 2.45 22.05 3.54484 22.05 4.9L22.05 9.8 14.7 9.8C10.6422 9.8 7.35 13.0922 7.35 17.15L7.35 34.3C7.35 38.3578 10.6422 41.65 14.7 41.65L34.3 41.65C38.3578 41.65 41.65 38.3578 41.65 34.3L41.65 17.15C41.65 13.0922 38.3578 9.8 34.3 9.8L26.95 9.8 26.95 4.9ZM12.25 33.075C12.25 32.0567 13.0692 31.2375 14.0875 31.2375L16.5375 31.2375C17.5558 31.2375 18.375 32.0567 18.375 33.075 18.375 34.0933 17.5558 34.9125 16.5375 34.9125L14.0875 34.9125C13.0692 34.9125 12.25 34.0933 12.25 33.075ZM21.4375 33.075C21.4375 32.0567 22.2567 31.2375 23.275 31.2375L25.725 31.2375C26.7433 31.2375 27.5625 32.0567 27.5625 33.075 27.5625 34.0933 26.7433 34.9125 25.725 34.9125L23.275 34.9125C22.2567 34.9125 21.4375 34.0933 21.4375 33.075ZM30.625 33.075C30.625 32.0567 31.4442 31.2375 32.4625 31.2375L34.9125 31.2375C35.9308 31.2375 36.75 32.0567 36.75 33.075 36.75 34.0933 35.9308 34.9125 34.9125 34.9125L32.4625 34.9125C31.4442 34.9125 30.625 34.0933 30.625 33.075ZM17.15 18.375C19.1789 18.375 20.825 20.0211 20.825 22.05 20.825 24.0789 19.1789 25.725 17.15 25.725 15.1211 25.725 13.475 24.0789 13.475 22.05 13.475 20.0211 15.1211 18.375 17.15 18.375ZM28.175 22.05C28.175 20.0211 29.8211 18.375 31.85 18.375 33.8789 18.375 35.525 20.0211 35.525 22.05 35.525 24.0789 33.8789 25.725 31.85 25.725 29.8211 25.725 28.175 24.0789 28.175 22.05ZM4.9 22.05C4.9 20.6948 3.80516 19.6 2.45 19.6 1.09484 19.6 0 20.6948 0 22.05L0 29.4C0 30.7552 1.09484 31.85 2.45 31.85 3.80516 31.85 4.9 30.7552 4.9 29.4L4.9 22.05ZM46.55 19.6C45.1948 19.6 44.1 20.6948 44.1 22.05L44.1 29.4C44.1 30.7552 45.1948 31.85 46.55 31.85 47.9052 31.85 49 30.7552 49 29.4L49 22.05C49 20.6948 47.9052 19.6 46.55 19.6Z" transform="matrix(1 0 0 1.02041 557 269)"/></g></g></g><path d="M468 194.333C468 190.836 470.836 188 474.333 188L484.333 188 484.333 188 508.833 188 559.667 188C563.164 188 566 190.836 566 194.333L566 210.167 566 210.167 566 219.667 566 219.667C566 223.164 563.164 226 559.667 226L508.833 226 484.333 226 484.333 226 474.333 226C470.836 226 468 223.164 468 219.667L468 219.667 453.087 219.245 468 210.167Z" stroke="#042433" stroke-width="2" stroke-miterlimit="8" fill="#C1E5F5" fill-rule="evenodd"/><text font-family="Jost SemiBold,Jost SemiBold_MSFontService,sans-serif" font-weight="600" font-size="21.3333" transform="translate(486.242 213)">Query</text><text font-family="Jost SemiBold,Jost SemiBold_MSFontService,sans-serif" font-weight="600" font-size="21.3333" transform="translate(547.576 213)"></text><g><g><g><path d="M429.5 210.887C434.576 210.887 438.688 206.776 438.688 201.7 438.688 196.624 434.576 192.512 429.5 192.512 424.424 192.512 420.312 196.624 420.312 201.7 420.312 206.776 424.424 210.887 429.5 210.887ZM427.226 215.175C419.685 215.175 413.575 221.285 413.575 228.826 413.575 230.082 414.593 231.1 415.849 231.1L443.151 231.1C444.407 231.1 445.425 230.082 445.425 228.826 445.425 221.285 439.315 215.175 431.774 215.175L427.226 215.175Z"/></g></g></g><text font-family="Jost SemiBold,Jost SemiBold_MSFontService,sans-serif" font-weight="600" font-size="24" transform="translate(438.62 171)">…………</text><path d="M405 260.334C405 254.626 409.626 250 415.334 250L482.583 250 482.583 250 515.833 250 527.666 250C533.374 250 538 254.626 538 260.334L538 286.167 550.87 304.163 538 301.667 538 301.666C538 307.374 533.374 312 527.666 312L515.833 312 482.583 312 482.583 312 415.334 312C409.626 312 405 307.374 405 301.666L405 301.667 405 286.167 405 286.167Z" stroke="#042433" stroke-width="2" stroke-miterlimit="8" fill="#D9F2D0" fill-rule="evenodd"/><text font-family="Jost SemiBold,Jost SemiBold_MSFontService,sans-serif" font-weight="600" font-size="21.3333" transform="translate(432.257 274)">Original</text><text font-family="Jost SemiBold,Jost SemiBold_MSFontService,sans-serif" font-weight="600" font-size="21.3333" transform="translate(425.337 300)">Response</text><text font-family="Jost SemiBold,Jost SemiBold_MSFontService,sans-serif" font-weight="600" font-size="21.3333" transform="translate(518.003 300)"></text><text font-family="Jost SemiBold,Jost SemiBold_MSFontService,sans-serif" font-weight="600" font-size="24" transform="translate(438.62 592)">…………</text><path d="M432 339.334C432 333.626 436.626 329 442.334 329L562.667 329C568.374 329 573 333.626 573 339.334L573 380.666C573 386.374 568.374 391 562.667 391L442.334 391C436.626 391 432 386.374 432 380.666Z" stroke="#042433" stroke-width="2" stroke-miterlimit="8" fill="#FBE3D6" fill-rule="evenodd"/><text font-family="Jost SemiBold,Jost SemiBold_MSFontService,sans-serif" font-weight="600" font-size="21.3333" transform="translate(446.745 354)">Augmented</text><text font-family="Jost SemiBold,Jost SemiBold_MSFontService,sans-serif" font-weight="600" font-size="21.3333" transform="translate(447.745 380)">Response</text><text font-family="Jost SemiBold,Jost SemiBold_MSFontService,sans-serif" font-weight="600" font-size="21.3333" transform="translate(546.745 380)">1</text><text font-family="Jost SemiBold,Jost SemiBold_MSFontService,sans-serif" font-weight="600" font-size="21.3333" transform="translate(557.245 380)"></text><path d="M432 421.334C432 415.626 436.626 411 442.334 411L562.667 411C568.374 411 573 415.626 573 421.334L573 462.666C573 468.374 568.374 473 562.667 473L442.334 473C436.626 473 432 468.374 432 462.666Z" stroke="#042433" stroke-width="2" stroke-miterlimit="8" fill="#F2CFEE" fill-rule="evenodd"/><text font-family="Jost SemiBold,Jost SemiBold_MSFontService,sans-serif" font-weight="600" font-size="21.3333" transform="translate(446.745 435)">Augmented</text><text font-family="Jost SemiBold,Jost SemiBold_MSFontService,sans-serif" font-weight="600" font-size="21.3333" transform="translate(446.245 461)">Response</text><text font-family="Jost SemiBold,Jost SemiBold_MSFontService,sans-serif" font-weight="600" font-size="21.3333" transform="translate(545.245 461)">2</text><text font-family="Jost SemiBold,Jost SemiBold_MSFontService,sans-serif" font-weight="600" font-size="21.3333" transform="translate(558.745 461)"></text><path d="M432 523.334C432 517.626 436.626 513 442.334 513L562.667 513C568.374 513 573 517.626 573 523.334L573 564.666C573 570.374 568.374 575 562.667 575L442.334 575C436.626 575 432 570.374 432 564.666Z" stroke="#042433" stroke-width="2" stroke-miterlimit="8" fill="#C6C6FA" fill-rule="evenodd"/><text font-family="Jost SemiBold,Jost SemiBold_MSFontService,sans-serif" font-weight="600" font-size="21.3333" transform="translate(446.745 538)">Augmented</text><text font-family="Jost SemiBold,Jost SemiBold_MSFontService,sans-serif" font-weight="600" font-size="21.3333" transform="translate(444.579 564)">Response N</text><text font-family="Jost SemiBold,Jost SemiBold_MSFontService,sans-serif" font-weight="600" font-size="21.3333" transform="translate(560.412 564)"></text><text font-family="Jost SemiBold,Jost SemiBold_MSFontService,sans-serif" font-weight="600" font-size="24" transform="translate(438.62 494)">…………</text><path d="M405.5 281.5 391.1 281.5 391.1 361.042 432.303 361.042" stroke="#E97132" stroke-width="3" stroke-miterlimit="8" fill="none" fill-rule="evenodd"/><path d="M405.5 281.5 376.167 281.5 376.167 442.771 432.303 442.771" stroke="#78206E" stroke-width="3" stroke-miterlimit="8" fill="none" fill-rule="evenodd"/><path d="M405.5 281.5 354.834 281.5 354.834 544.829 432.303 544.829" stroke="#6A6AF2" stroke-width="3" stroke-miterlimit="8" fill="none" fill-rule="evenodd"/><path d="M0-2 120.396-2 120.396 49.0358 116.396 49.0358 116.396 0 118.396 2 0 2ZM128.396 47.0358 118.396 67.0358 108.396 47.0358Z" transform="matrix(1.83697e-16 1 1 -1.83697e-16 387 546)"/><path d="M0-2 54.9897-2 54.9897 271.898 52.9897 269.898 87.9794 269.898 87.9794 273.898 50.9897 273.898 50.9897 0 52.9897 2 0 2ZM85.9794 261.898 105.979 271.898 85.9794 281.898Z" transform="matrix(1 0 0 -1 628 663.898)"/><text font-family="Jost SemiBold,Jost SemiBold_MSFontService,sans-serif" font-weight="600" font-size="24" transform="translate(54.0624 414)">Nouns</text><text font-family="Jost SemiBold,Jost SemiBold_MSFontService,sans-serif" font-weight="600" font-size="24" transform="translate(124.062 414)"></text><rect x="1102" y="329" width="143" height="64" stroke="#000000" stroke-width="2" stroke-miterlimit="8" fill="#FFFFCC"/><text font-family="Jost SemiBold,Jost SemiBold_MSFontService,sans-serif" font-weight="600" font-size="21.3333" transform="translate(1119.41 354)">DIALOGUE</text><text font-family="Jost SemiBold,Jost SemiBold_MSFontService,sans-serif" font-weight="600" font-size="21.3333" transform="translate(1227.91 354)"></text><text font-family="Jost SemiBold,Jost SemiBold_MSFontService,sans-serif" font-weight="600" font-size="21.3333" transform="translate(1119.66 380)">AGENT</text><text font-family="Segoe UI Emoji,Segoe UI Emoji_MSFontService,sans-serif" font-weight="400" font-size="21.3333" transform="translate(1198.33 380)">🔥</text><text font-family="Jost SemiBold,Jost SemiBold_MSFontService,sans-serif" font-weight="600" font-size="21.3333" transform="translate(1227.66 380)"></text><text font-family="Jost SemiBold,Jost SemiBold_MSFontService,sans-serif" font-weight="600" font-size="21.3333" transform="translate(1234 380)"></text><text font-family="Jost SemiBold,Jost SemiBold_MSFontService,sans-serif" font-weight="600" font-size="21.3333" transform="translate(47.3447 55)">PERSONA</text><text font-family="Jost SemiBold,Jost SemiBold_MSFontService,sans-serif" font-weight="600" font-size="21.3333" transform="translate(148.011 55)">-</text><text font-family="Jost SemiBold,Jost SemiBold_MSFontService,sans-serif" font-weight="600" font-size="21.3333" transform="translate(152.678 55)">BASED</text><text font-family="Jost SemiBold,Jost SemiBold_MSFontService,sans-serif" font-weight="600" font-size="21.3333" transform="translate(73.8447 81)">DIALOGUES</text><text font-family="Jost SemiBold,Jost SemiBold_MSFontService,sans-serif" font-weight="600" font-size="21.3333" transform="translate(195.178 81)"></text><text font-family="Jost SemiBold,Jost SemiBold_MSFontService,sans-serif" font-weight="600" font-size="21.3333" transform="translate(415.703 54)">AUGMENTED</text><text font-family="Jost SemiBold,Jost SemiBold_MSFontService,sans-serif" font-weight="600" font-size="21.3333" transform="translate(421.957 80)">DIALOGUES</text><text font-family="Jost SemiBold,Jost SemiBold_MSFontService,sans-serif" font-weight="600" font-size="21.3333" transform="translate(543.29 80)"></text><text font-family="Jost SemiBold,Jost SemiBold_MSFontService,sans-serif" font-weight="600" font-size="21.3333" transform="translate(726.796 54)">AUGMENTED DIALOGUES</text><text font-family="Jost SemiBold,Jost SemiBold_MSFontService,sans-serif" font-weight="600" font-size="21.3333" transform="translate(784.543 80)">WITH SCORES</text><text font-family="Jost SemiBold,Jost SemiBold_MSFontService,sans-serif" font-weight="600" font-size="21.3333" transform="translate(930.543 80)"></text><text font-family="Jost SemiBold,Jost SemiBold_MSFontService,sans-serif" font-weight="600" font-size="21.3333" transform="translate(1108.58 55)">FINETUNING</text><text font-family="Jost SemiBold,Jost SemiBold_MSFontService,sans-serif" font-weight="600" font-size="21.3333" transform="translate(1238.74 55)"></text><path d="M1091 150.667C1091 139.253 1100.25 130 1111.67 130L1235.33 130C1246.75 130 1256 139.253 1256 150.667L1256 233.333C1256 244.747 1246.75 254 1235.33 254L1111.67 254C1100.25 254 1091 244.747 1091 233.333Z" stroke="#000000" stroke-width="2" stroke-miterlimit="8" fill="#C1E5F5" fill-rule="evenodd"/><text font-family="Jost SemiBold,Jost SemiBold_MSFontService,sans-serif" font-weight="600" font-size="21.3333" transform="translate(1107.83 160)">Persona Facts</text><text font-family="Jost SemiBold,Jost SemiBold_MSFontService,sans-serif" font-weight="600" font-size="21.3333" transform="translate(1245.83 160)"></text><text font-family="Jost SemiBold,Jost SemiBold_MSFontService,sans-serif" font-weight="600" font-size="21.3333" transform="translate(1108.75 186)">+</text><text font-family="Jost SemiBold,Jost SemiBold_MSFontService,sans-serif" font-weight="600" font-size="21.3333" transform="translate(1129.08 186)">…</text><text font-family="Jost SemiBold,Jost SemiBold_MSFontService,sans-serif" font-weight="600" font-size="21.3333" transform="translate(1154.91 186)">(History)</text><text font-family="Jost SemiBold,Jost SemiBold_MSFontService,sans-serif" font-weight="600" font-size="21.3333" transform="translate(1238.58 186)"></text><text font-family="Jost SemiBold,Jost SemiBold_MSFontService,sans-serif" font-weight="600" font-size="21.3333" transform="translate(1132.83 211)">+ Query</text><text font-family="Jost SemiBold,Jost SemiBold_MSFontService,sans-serif" font-weight="600" font-size="21.3333" transform="translate(1214.49 211)"></text><text font-family="Jost SemiBold,Jost SemiBold_MSFontService,sans-serif" font-weight="600" font-size="21.3333" transform="translate(1135.75 237)">+ Score</text><text font-family="Jost SemiBold,Jost SemiBold_MSFontService,sans-serif" font-weight="600" font-size="21.3333" transform="translate(1211.58 237)"></text><path d="M1101 524.333C1101 518.626 1105.63 514 1111.33 514L1235.67 514C1241.37 514 1246 518.626 1246 524.333L1246 565.667C1246 571.374 1241.37 576 1235.67 576L1111.33 576C1105.63 576 1101 571.374 1101 565.667Z" stroke="#042433" stroke-width="2" stroke-miterlimit="8" fill="#D9F2D0" fill-rule="evenodd"/><text font-family="Jost SemiBold,Jost SemiBold_MSFontService,sans-serif" font-weight="600" font-size="21.3333" transform="translate(1127.33 539)">Response</text><text font-family="Jost SemiBold,Jost SemiBold_MSFontService,sans-serif" font-weight="600" font-size="21.3333" transform="translate(1128.91 565)">for Score</text><text font-family="Jost SemiBold,Jost SemiBold_MSFontService,sans-serif" font-weight="600" font-size="21.3333" transform="translate(1218.41 565)"></text><path d="M1176 393 1176 444.134 1174 444.134 1176 442.134 1176 473.268 1172 473.268 1172 440.134 1174 440.134 1172 442.134 1172 393ZM1184 471.268 1174 491.268 1164 471.268Z"/><text font-family="Segoe UI Emoji,Segoe UI Emoji_MSFontService,sans-serif" font-weight="400" font-size="24" transform="translate(38.5832 620)">❄️</text><text font-family="Aptos,Aptos_MSFontService,sans-serif" font-weight="400" font-size="24" transform="translate(71.5832 620)"></text><text font-family="Jost Medium,Jost Medium_MSFontService,sans-serif" font-weight="500" font-size="21.3333" transform="translate(76.4165 620)">Frozen Parameters</text><text font-family="Jost Medium,Jost Medium_MSFontService,sans-serif" font-weight="500" font-size="21.3333" transform="translate(249.583 620)"></text><text font-family="Segoe UI Emoji,Segoe UI Emoji_MSFontService,sans-serif" font-weight="400" font-size="24" transform="translate(38.5832 649)">🔥</text><text font-family="Aptos,Aptos_MSFontService,sans-serif" font-weight="400" font-size="24" transform="translate(71.5832 649)"></text><text font-family="Jost Medium,Jost Medium_MSFontService,sans-serif" font-weight="500" font-size="21.3333" transform="translate(76.4165 649)">Trainable Parameters</text><text font-family="Jost Medium,Jost Medium_MSFontService,sans-serif" font-weight="500" font-size="21.3333" transform="translate(271.583 649)"></text><text font-family="Jost SemiBold,Jost SemiBold_MSFontService,sans-serif" font-weight="600" font-size="18.6667" transform="translate(1146.74 125)">INPUT</text><text font-family="Jost SemiBold,Jost SemiBold_MSFontService,sans-serif" font-weight="600" font-size="18.6667" transform="translate(1200.57 125)"></text><text font-family="Jost SemiBold,Jost SemiBold_MSFontService,sans-serif" font-weight="600" font-size="18.6667" transform="translate(1137.99 509)">OUTPUT</text><text font-family="Jost SemiBold,Jost SemiBold_MSFontService,sans-serif" font-weight="600" font-size="18.6667" transform="translate(1209.33 509)"></text></g></svg>