<svg width="1280" height="720" xmlns="http://www.w3.org/2000/svg" xmlns:xlink="http://www.w3.org/1999/xlink" overflow="hidden"><defs><filter id="fx0" x="-10%" y="-10%" width="120%" height="120%" filterUnits="userSpaceOnUse" primitiveUnits="userSpaceOnUse"><feComponentTransfer color-interpolation-filters="sRGB"><feFuncR type="discrete" tableValues="0 0"/><feFuncG type="discrete" tableValues="0 0"/><feFuncB type="discrete" tableValues="0 0"/><feFuncA type="linear" slope="0.431373" intercept="0"/></feComponentTransfer><feGaussianBlur stdDeviation="0.558453 0.558453"/></filter><filter id="fx1" x="-10%" y="-10%" width="120%" height="120%" filterUnits="userSpaceOnUse" primitiveUnits="userSpaceOnUse"><feComponentTransfer color-interpolation-filters="sRGB"><feFuncR type="discrete" tableValues="0 0"/><feFuncG type="discrete" tableValues="0 0"/><feFuncB type="discrete" tableValues="0 0"/><feFuncA type="linear" slope="0.431373" intercept="0"/></feComponentTransfer><feGaussianBlur stdDeviation="0.558453 0.558453"/></filter><filter id="fx2" x="-10%" y="-10%" width="120%" height="120%" filterUnits="userSpaceOnUse" primitiveUnits="userSpaceOnUse"><feComponentTransfer color-interpolation-filters="sRGB"><feFuncR type="discrete" tableValues="0 0"/><feFuncG type="discrete" tableValues="0 0"/><feFuncB type="discrete" tableValues="0 0"/><feFuncA type="linear" slope="0.431373" intercept="0"/></feComponentTransfer><feGaussianBlur stdDeviation="0.558453 0.558453"/></filter><filter id="fx3" x="-10%" y="-10%" width="120%" height="120%" filterUnits="userSpaceOnUse" primitiveUnits="userSpaceOnUse"><feComponentTransfer color-interpolation-filters="sRGB"><feFuncR type="discrete" tableValues="0 0"/><feFuncG type="discrete" tableValues="0 0"/><feFuncB type="discrete" tableValues="0 0"/><feFuncA type="linear" slope="0.431373" intercept="0"/></feComponentTransfer><feGaussianBlur stdDeviation="0.558453 0.558453"/></filter><filter id="fx4" x="-10%" y="-10%" width="120%" height="120%" filterUnits="userSpaceOnUse" primitiveUnits="userSpaceOnUse"><feComponentTransfer color-interpolation-filters="sRGB"><feFuncR type="discrete" tableValues="0 0"/><feFuncG type="discrete" tableValues="0 0"/><feFuncB type="discrete" tableValues="0 0"/><feFuncA type="linear" slope="0.431373" intercept="0"/></feComponentTransfer><feGaussianBlur stdDeviation="0.558453 0.558453"/></filter><filter id="fx5" x="-10%" y="-10%" width="120%" height="120%" filterUnits="userSpaceOnUse" primitiveUnits="userSpaceOnUse"><feComponentTransfer color-interpolation-filters="sRGB"><feFuncR type="discrete" tableValues="0 0"/><feFuncG type="discrete" tableValues="0 0"/><feFuncB type="discrete" tableValues="0 0"/><feFuncA type="linear" slope="0.431373" intercept="0"/></feComponentTransfer><feGaussianBlur stdDeviation="0.558453 0.558453"/></filter><filter id="fx6" x="-10%" y="-10%" width="120%" height="120%" filterUnits="userSpaceOnUse" primitiveUnits="userSpaceOnUse"><feComponentTransfer color-interpolation-filters="sRGB"><feFuncR type="discrete" tableValues="0 0"/><feFuncG type="discrete" tableValues="0 0"/><feFuncB type="discrete" tableValues="0 0"/><feFuncA type="linear" slope="0.431373" intercept="0"/></feComponentTransfer><feGaussianBlur stdDeviation="0.558453 0.558453"/></filter><clipPath id="clip7"><rect x="0" y="0" width="1280" height="720"/></clipPath><clipPath id="clip8"><rect x="18" y="17" width="11" height="23"/></clipPath><clipPath id="clip9"><rect x="17" y="17" width="11" height="23"/></clipPath><clipPath id="clip10"><rect x="18" y="17" width="11" height="23"/></clipPath><clipPath id="clip11"><rect x="18" y="17" width="11" height="23"/></clipPath><clipPath id="clip12"><rect x="2147482880" y="2147483648" width="0" height="0"/></clipPath><clipPath id="clip13"><rect x="18" y="17" width="11" height="23"/></clipPath><clipPath id="clip14"><rect x="2147483008" y="2147483648" width="0" height="0"/></clipPath></defs><g clip-path="url(#clip7)"><rect x="0" y="0" width="1280" height="720" fill="#FFFFFF"/><path d="M144.13 94.2277 1251.58 94.2277" stroke="#000000" stroke-width="3" stroke-linejoin="round" stroke-miterlimit="10" fill="none" fill-rule="evenodd"/><path d="M144.13 164.934 1251.58 164.934" stroke="#000000" stroke-width="3" stroke-linejoin="round" stroke-miterlimit="10" fill="none" fill-rule="evenodd"/><path d="M144.13 235.64 1251.58 235.64" stroke="#000000" stroke-width="3" stroke-linejoin="round" stroke-miterlimit="10" fill="none" fill-rule="evenodd"/><path d="M144.13 292.717 1251.58 292.717" stroke="#000000" stroke-width="3" stroke-linejoin="round" stroke-miterlimit="10" fill="none" fill-rule="evenodd"/><path d="M144.13 349.793 1251.58 349.793" stroke="#000000" stroke-width="3" stroke-linejoin="round" stroke-miterlimit="10" fill="none" fill-rule="evenodd"/><path d="M28.4235 420.499 1251.58 420.499" stroke="#000000" stroke-width="3" stroke-linejoin="round" stroke-miterlimit="10" fill="none" fill-rule="evenodd"/><path d="M144.13 491.205 1251.58 491.205" stroke="#000000" stroke-width="3" stroke-linejoin="round" stroke-miterlimit="10" fill="none" fill-rule="evenodd"/><path d="M144.13 561.912 1251.58 561.912" stroke="#000000" stroke-width="3" stroke-linejoin="round" stroke-miterlimit="10" fill="none" fill-rule="evenodd"/><path d="M144.13 632.618 1251.58 632.618" stroke="#000000" stroke-width="3" stroke-linejoin="round" stroke-miterlimit="10" fill="none" fill-rule="evenodd"/><path d="M28.4235 23.5214 1251.58 23.5214" stroke="#000000" stroke-width="3" stroke-linejoin="round" stroke-miterlimit="10" fill="none" fill-rule="evenodd"/><path d="M28.4235 696.479 1251.58 696.479" stroke="#000000" stroke-width="3" stroke-linejoin="round" stroke-miterlimit="10" fill="none" fill-rule="evenodd"/><text font-family="Jost,Jost_MSFontService,sans-serif" font-weight="700" font-size="24" transform="translate(1176.45 66)">C</text><g clip-path="url(#clip8)" filter="url(#fx0)" transform="translate(1184 34)"><g><path d="M1.79297-10.8516C2.92578-11.8906 3.78711-12.7891 4.37695-13.5469 4.9668-14.3047 5.40625-15.0195 5.69531-15.6914L6.23438-15.6914C6.60156-14.918 7.07617-14.168 7.6582-13.4414 8.24023-12.7148 9.09375-11.8477 10.2188-10.8398L10.2188-9.9375C8.64844-10.6719 7.44141-11.4414 6.59766-12.2461L6.59766 5.02734 5.41406 5.02734 5.41406-12.2461C4.66406-11.6523 4.10352-11.2383 3.73242-11.0039 3.36133-10.7695 2.71484-10.4219 1.79297-9.96094Z" transform="translate(17.6316 34)"/></g></g><path d="M1.79297-10.8516C2.92578-11.8906 3.78711-12.7891 4.37695-13.5469 4.9668-14.3047 5.40625-15.0195 5.69531-15.6914L6.23438-15.6914C6.60156-14.918 7.07617-14.168 7.6582-13.4414 8.24023-12.7148 9.09375-11.8477 10.2188-10.8398L10.2188-9.9375C8.64844-10.6719 7.44141-11.4414 6.59766-12.2461L6.59766 5.02734 5.41406 5.02734 5.41406-12.2461C4.66406-11.6523 4.10352-11.2383 3.73242-11.0039 3.36133-10.7695 2.71484-10.4219 1.79297-9.96094Z" transform="translate(1200.45 66)"/><text fill="#000000" fill-opacity="0" font-family="Arial,Arial_MSFontService,sans-serif" font-size="20.7188" x="1.79297" y="2.4375">↑</text><text font-family="Jost,Jost_MSFontService,sans-serif" font-weight="700" font-size="24" transform="translate(1212.45 66)"></text><text font-family="Jost,Jost_MSFontService,sans-serif" font-weight="700" font-size="24" transform="translate(1033.73 66)">Ent</text><text font-family="Jost,Jost_MSFontService,sans-serif" font-weight="700" font-size="24" transform="translate(1069.73 66)">-</text><text font-family="Jost,Jost_MSFontService,sans-serif" font-weight="700" font-size="24" transform="translate(1075.06 66)">2</text><g clip-path="url(#clip9)" filter="url(#fx1)" transform="translate(1082 34)"><g><path d="M1.79297-10.8516C2.92578-11.8906 3.78711-12.7891 4.37695-13.5469 4.9668-14.3047 5.40625-15.0195 5.69531-15.6914L6.23438-15.6914C6.60156-14.918 7.07617-14.168 7.6582-13.4414 8.24023-12.7148 9.09375-11.8477 10.2188-10.8398L10.2188-9.9375C8.64844-10.6719 7.44141-11.4414 6.59766-12.2461L6.59766 5.02734 5.41406 5.02734 5.41406-12.2461C4.66406-11.6523 4.10352-11.2383 3.73242-11.0039 3.36133-10.7695 2.71484-10.4219 1.79297-9.96094Z" transform="translate(17.0798 34)"/></g></g><path d="M1.79297-10.8516C2.92578-11.8906 3.78711-12.7891 4.37695-13.5469 4.9668-14.3047 5.40625-15.0195 5.69531-15.6914L6.23438-15.6914C6.60156-14.918 7.07617-14.168 7.6582-13.4414 8.24023-12.7148 9.09375-11.8477 10.2188-10.8398L10.2188-9.9375C8.64844-10.6719 7.44141-11.4414 6.59766-12.2461L6.59766 5.02734 5.41406 5.02734 5.41406-12.2461C4.66406-11.6523 4.10352-11.2383 3.73242-11.0039 3.36133-10.7695 2.71484-10.4219 1.79297-9.96094Z" transform="translate(1097.9 66)"/><text fill="#000000" fill-opacity="0" font-family="Arial,Arial_MSFontService,sans-serif" font-size="20.7188" x="1.79297" y="2.4375">↑</text><text font-family="Jost,Jost_MSFontService,sans-serif" font-weight="700" font-size="24" transform="translate(1109.9 66)"></text><text font-family="Jost,Jost_MSFontService,sans-serif" font-weight="700" font-size="24" transform="translate(894.134 66)">Dist</text><text font-family="Jost,Jost_MSFontService,sans-serif" font-weight="700" font-size="24" transform="translate(937.134 66)">-</text><text font-family="Jost,Jost_MSFontService,sans-serif" font-weight="700" font-size="24" transform="translate(942.468 66)">2</text><g clip-path="url(#clip10)" filter="url(#fx2)" transform="translate(949 34)"><g><path d="M1.79297-10.8516C2.92578-11.8906 3.78711-12.7891 4.37695-13.5469 4.9668-14.3047 5.40625-15.0195 5.69531-15.6914L6.23438-15.6914C6.60156-14.918 7.07617-14.168 7.6582-13.4414 8.24023-12.7148 9.09375-11.8477 10.2188-10.8398L10.2188-9.9375C8.64844-10.6719 7.44141-11.4414 6.59766-12.2461L6.59766 5.02734 5.41406 5.02734 5.41406-12.2461C4.66406-11.6523 4.10352-11.2383 3.73242-11.0039 3.36133-10.7695 2.71484-10.4219 1.79297-9.96094Z" transform="translate(17.4857 34)"/></g></g><path d="M1.79297-10.8516C2.92578-11.8906 3.78711-12.7891 4.37695-13.5469 4.9668-14.3047 5.40625-15.0195 5.69531-15.6914L6.23438-15.6914C6.60156-14.918 7.07617-14.168 7.6582-13.4414 8.24023-12.7148 9.09375-11.8477 10.2188-10.8398L10.2188-9.9375C8.64844-10.6719 7.44141-11.4414 6.59766-12.2461L6.59766 5.02734 5.41406 5.02734 5.41406-12.2461C4.66406-11.6523 4.10352-11.2383 3.73242-11.0039 3.36133-10.7695 2.71484-10.4219 1.79297-9.96094Z" transform="translate(965.301 66)"/><text fill="#000000" fill-opacity="0" font-family="Arial,Arial_MSFontService,sans-serif" font-size="20.7188" x="1.79297" y="2.4375">↑</text><text font-family="Jost,Jost_MSFontService,sans-serif" font-weight="700" font-size="24" transform="translate(977.301 66)"></text><text font-family="Jost,Jost_MSFontService,sans-serif" font-weight="700" font-size="24" transform="translate(738.792 66)">BLEU</text><text font-family="Jost,Jost_MSFontService,sans-serif" font-weight="700" font-size="24" transform="translate(798.792 66)">-</text><text font-family="Jost,Jost_MSFontService,sans-serif" font-weight="700" font-size="24" transform="translate(804.125 66)">4</text><g clip-path="url(#clip11)" filter="url(#fx3)" transform="translate(812 34)"><g><path d="M1.79297-10.8516C2.92578-11.8906 3.78711-12.7891 4.37695-13.5469 4.9668-14.3047 5.40625-15.0195 5.69531-15.6914L6.23438-15.6914C6.60156-14.918 7.07617-14.168 7.6582-13.4414 8.24023-12.7148 9.09375-11.8477 10.2188-10.8398L10.2188-9.9375C8.64844-10.6719 7.44141-11.4414 6.59766-12.2461L6.59766 5.02734 5.41406 5.02734 5.41406-12.2461C4.66406-11.6523 4.10352-11.2383 3.73242-11.0039 3.36133-10.7695 2.71484-10.4219 1.79297-9.96094Z" transform="translate(17.3102 34)"/></g></g><path d="M1.79297-10.8516C2.92578-11.8906 3.78711-12.7891 4.37695-13.5469 4.9668-14.3047 5.40625-15.0195 5.69531-15.6914L6.23438-15.6914C6.60156-14.918 7.07617-14.168 7.6582-13.4414 8.24023-12.7148 9.09375-11.8477 10.2188-10.8398L10.2188-9.9375C8.64844-10.6719 7.44141-11.4414 6.59766-12.2461L6.59766 5.02734 5.41406 5.02734 5.41406-12.2461C4.66406-11.6523 4.10352-11.2383 3.73242-11.0039 3.36133-10.7695 2.71484-10.4219 1.79297-9.96094Z" transform="translate(828.125 66)"/><text fill="#000000" fill-opacity="0" font-family="Arial,Arial_MSFontService,sans-serif" font-size="20.7188" x="1.79297" y="2.4375">↑</text><g clip-path="url(#clip12)" filter="url(#fx4)" transform="translate(824 36)"><g><path d="" transform="translate(17.3102 32)"/></g></g><text font-family="Jost,Jost_MSFontService,sans-serif" font-weight="400" font-size="24" transform="translate(840.125 66)"></text><text font-family="Jost,Jost_MSFontService,sans-serif" font-weight="700" font-size="24" transform="translate(593.737 66)">BLEU</text><text font-family="Jost,Jost_MSFontService,sans-serif" font-weight="700" font-size="24" transform="translate(653.737 66)">-</text><text font-family="Jost,Jost_MSFontService,sans-serif" font-weight="700" font-size="24" transform="translate(659.071 66)">1</text><g clip-path="url(#clip13)" filter="url(#fx5)" transform="translate(662 34)"><g><path d="M1.79297-10.8516C2.92578-11.8906 3.78711-12.7891 4.37695-13.5469 4.9668-14.3047 5.40625-15.0195 5.69531-15.6914L6.23438-15.6914C6.60156-14.918 7.07617-14.168 7.6582-13.4414 8.24023-12.7148 9.09375-11.8477 10.2188-10.8398L10.2188-9.9375C8.64844-10.6719 7.44141-11.4414 6.59766-12.2461L6.59766 5.02734 5.41406 5.02734 5.41406-12.2461C4.66406-11.6523 4.10352-11.2383 3.73242-11.0039 3.36133-10.7695 2.71484-10.4219 1.79297-9.96094Z" transform="translate(17.5886 34)"/></g></g><path d="M1.79297-10.8516C2.92578-11.8906 3.78711-12.7891 4.37695-13.5469 4.9668-14.3047 5.40625-15.0195 5.69531-15.6914L6.23438-15.6914C6.60156-14.918 7.07617-14.168 7.6582-13.4414 8.24023-12.7148 9.09375-11.8477 10.2188-10.8398L10.2188-9.9375C8.64844-10.6719 7.44141-11.4414 6.59766-12.2461L6.59766 5.02734 5.41406 5.02734 5.41406-12.2461C4.66406-11.6523 4.10352-11.2383 3.73242-11.0039 3.36133-10.7695 2.71484-10.4219 1.79297-9.96094Z" transform="translate(678.404 66)"/><text fill="#000000" fill-opacity="0" font-family="Arial,Arial_MSFontService,sans-serif" font-size="20.7188" x="1.79297" y="2.4375">↑</text><g clip-path="url(#clip14)" filter="url(#fx6)" transform="translate(674 36)"><g><path d="" transform="translate(17.5886 32)"/></g></g><text font-family="Jost,Jost_MSFontService,sans-serif" font-weight="400" font-size="24" transform="translate(690.404 66)"></text><text font-family="Jost,Jost_MSFontService,sans-serif" font-weight="700" font-size="24" transform="translate(487.79 65)">Size</text><text font-family="Jost,Jost_MSFontService,sans-serif" font-weight="700" font-size="24" transform="translate(535.457 65)"></text><g><text font-family="Jost,Jost_MSFontService,sans-serif" font-weight="700" font-size="24" transform="translate(321.318 65)">Model</text></g><text font-family="Jost,Jost_MSFontService,sans-serif" font-weight="700" font-size="24" transform="translate(391.984 65)"></text><g><text font-family="Jost,Jost_MSFontService,sans-serif" font-weight="700" font-size="24" transform="translate(153.73 65)">Method</text></g><text font-family="Jost,Jost_MSFontService,sans-serif" font-weight="700" font-size="24" transform="translate(239.064 65)"></text><text font-family="Jost,Jost_MSFontService,sans-serif" font-weight="700" font-size="24" transform="translate(55.9435 214)">Small</text><text font-family="Jost,Jost_MSFontService,sans-serif" font-weight="700" font-size="24" transform="translate(63.7768 243)">LMs</text><text font-family="Jost,Jost_MSFontService,sans-serif" font-weight="700" font-size="24" transform="translate(108.777 243)"></text><text font-family="Jost,Jost_MSFontService,sans-serif" font-weight="400" font-size="24" transform="translate(1163.2 136)">60.84</text><text font-family="Jost,Jost_MSFontService,sans-serif" font-weight="400" font-size="24" transform="translate(1225.7 136)"></text><text font-family="Jost,Jost_MSFontService,sans-serif" font-weight="400" font-size="24" transform="translate(1047.65 136)">6.56</text><text font-family="Jost,Jost_MSFontService,sans-serif" font-weight="400" font-size="24" transform="translate(1095.98 136)"></text><text font-family="Jost,Jost_MSFontService,sans-serif" font-weight="400" font-size="24" transform="translate(906.718 136)">15.67</text><text font-family="Jost,Jost_MSFontService,sans-serif" font-weight="400" font-size="24" transform="translate(964.718 136)"></text><text font-family="Jost,Jost_MSFontService,sans-serif" font-weight="400" font-size="24" transform="translate(765.459 136)">2.84</text><text font-family="Jost,Jost_MSFontService,sans-serif" font-weight="400" font-size="24" transform="translate(813.459 136)"></text><text font-family="Jost,Jost_MSFontService,sans-serif" font-weight="400" font-size="24" transform="translate(614.154 136)">17.99</text><text font-family="Jost,Jost_MSFontService,sans-serif" font-weight="400" font-size="24" transform="translate(669.987 136)"></text><text font-family="Jost,Jost_MSFontService,sans-serif" font-weight="400" font-size="24" transform="translate(484.707 136)">117M</text><text font-family="Jost,Jost_MSFontService,sans-serif" font-weight="400" font-size="24" transform="translate(538.54 136)"></text><g><text font-family="Jost,Jost_MSFontService,sans-serif" font-weight="400" font-size="24" transform="translate(321.318 136)">DialoGPT</text></g><text font-family="Jost,Jost_MSFontService,sans-serif" font-weight="400" font-size="24" transform="translate(416.318 136)"></text><g><text font-family="Jost,Jost_MSFontService,sans-serif" font-weight="400" font-size="24" transform="translate(153.73 136)">Baseline</text></g><text font-family="Jost,Jost_MSFontService,sans-serif" font-weight="400" font-size="24" transform="translate(237.23 136)"></text><text font-family="Jost,Jost_MSFontService,sans-serif" font-weight="400" font-size="24" transform="translate(1163.53 207)">63.90</text><text font-family="Jost,Jost_MSFontService,sans-serif" font-weight="400" font-size="24" transform="translate(1225.36 207)"></text><text font-family="Jost,Jost_MSFontService,sans-serif" font-weight="400" font-size="24" transform="translate(1050.56 207)">7.10</text><text font-family="Jost,Jost_MSFontService,sans-serif" font-weight="400" font-size="24" transform="translate(1093.06 207)"></text><path d="M1050.98 207.887 1071.98 207.887 1092.98 207.887 1092.98 209.887 1071.98 209.887 1050.98 209.887Z" fill-rule="evenodd"/><text font-family="Jost,Jost_MSFontService,sans-serif" font-weight="400" font-size="24" transform="translate(908.884 207)">11.14</text><text font-family="Jost,Jost_MSFontService,sans-serif" font-weight="400" font-size="24" transform="translate(962.551 207)"></text><text font-family="Jost,Jost_MSFontService,sans-serif" font-weight="400" font-size="24" transform="translate(765.959 207)">3.52</text><text font-family="Jost,Jost_MSFontService,sans-serif" font-weight="400" font-size="24" transform="translate(812.959 207)"></text><path d="M766.459 207.887 789.959 207.887 813.459 207.887 813.459 209.887 789.959 209.887 766.459 209.887Z" fill-rule="evenodd"/><text font-family="Jost,Jost_MSFontService,sans-serif" font-weight="400" font-size="24" transform="translate(613.487 207)">19.70</text><text font-family="Jost,Jost_MSFontService,sans-serif" font-weight="400" font-size="24" transform="translate(670.654 207)"></text><text font-family="Jost,Jost_MSFontService,sans-serif" font-weight="400" font-size="24" transform="translate(484.707 207)">117M</text><text font-family="Jost,Jost_MSFontService,sans-serif" font-weight="400" font-size="24" transform="translate(538.54 207)"></text><g><text font-family="Jost,Jost_MSFontService,sans-serif" font-weight="400" font-size="24" transform="translate(321.318 207)">DialoGPT</text></g><text font-family="Jost,Jost_MSFontService,sans-serif" font-weight="400" font-size="24" transform="translate(416.318 207)"></text><g><text font-family="Jost,Jost_MSFontService,sans-serif" font-weight="400" font-size="24" transform="translate(153.73 207)">LTKM</text></g><text font-family="Jost,Jost_MSFontService,sans-serif" font-weight="400" font-size="24" transform="translate(207.064 207)"></text><text font-family="Jost,Jost_MSFontService,sans-serif" font-weight="400" font-size="24" transform="translate(1165.28 271)">68.16</text><text font-family="Jost,Jost_MSFontService,sans-serif" font-weight="400" font-size="24" transform="translate(1223.61 271)"></text><path d="M1164.95 271.778 1184.61 271.778 1204.28 271.778 1223.95 271.778 1223.95 273.778 1204.28 273.778 1184.61 273.778 1164.95 273.778Z" fill-rule="evenodd"/><text font-family="Jost,Jost_MSFontService,sans-serif" font-weight="400" font-size="24" transform="translate(1047.81 271)">6.70</text><text font-family="Jost,Jost_MSFontService,sans-serif" font-weight="400" font-size="24" transform="translate(1095.81 271)"></text><text font-family="Jost,Jost_MSFontService,sans-serif" font-weight="400" font-size="24" transform="translate(912.468 271)">9.25</text><text font-family="Jost,Jost_MSFontService,sans-serif" font-weight="400" font-size="24" transform="translate(958.968 271)"></text><text font-family="Jost,Jost_MSFontService,sans-serif" font-weight="400" font-size="24" transform="translate(765.542 271)">3.20</text><text font-family="Jost,Jost_MSFontService,sans-serif" font-weight="400" font-size="24" transform="translate(813.375 271)"></text><text font-family="Jost,Jost_MSFontService,sans-serif" font-weight="400" font-size="24" transform="translate(612.237 271)">21.20</text><text font-family="Jost,Jost_MSFontService,sans-serif" font-weight="400" font-size="24" transform="translate(671.904 271)"></text><text font-family="Jost,Jost_MSFontService,sans-serif" font-weight="400" font-size="24" transform="translate(481.29 271)">254M</text><text font-family="Jost,Jost_MSFontService,sans-serif" font-weight="400" font-size="24" transform="translate(541.957 271)"></text><g><text font-family="Jost,Jost_MSFontService,sans-serif" font-weight="400" font-size="24" transform="translate(321.318 271)">GPT2</text></g><text font-family="Jost,Jost_MSFontService,sans-serif" font-weight="400" font-size="24" transform="translate(377.318 271)"></text><g><text font-family="Jost,Jost_MSFontService,sans-serif" font-weight="400" font-size="24" transform="translate(153.73 271)">PAA</text></g><text font-family="Jost,Jost_MSFontService,sans-serif" font-weight="400" font-size="24" transform="translate(197.564 271)"></text><text font-family="Jost,Jost_MSFontService,sans-serif" font-weight="400" font-size="24" transform="translate(1165.2 328)">65.13</text><text font-family="Jost,Jost_MSFontService,sans-serif" font-weight="400" font-size="24" transform="translate(1223.7 328)"></text><text font-family="Jost,Jost_MSFontService,sans-serif" font-weight="700" font-size="24" transform="translate(1046.15 328)">7.29</text><text font-family="Jost,Jost_MSFontService,sans-serif" font-weight="700" font-size="24" transform="translate(1097.48 328)"></text><text font-family="Jost,Jost_MSFontService,sans-serif" font-weight="700" font-size="24" transform="translate(904.884 328)">17.38</text><text font-family="Jost,Jost_MSFontService,sans-serif" font-weight="700" font-size="24" transform="translate(966.551 328)"></text><text font-family="Jost,Jost_MSFontService,sans-serif" font-weight="400" font-size="24" transform="translate(765.875 328)">3.22</text><text font-family="Jost,Jost_MSFontService,sans-serif" font-weight="400" font-size="24" transform="translate(813.042 328)"></text><text font-family="Jost,Jost_MSFontService,sans-serif" font-weight="400" font-size="24" transform="translate(610.987 328)">20.63</text><text font-family="Jost,Jost_MSFontService,sans-serif" font-weight="400" font-size="24" transform="translate(673.154 328)"></text><path d="M610.987 328.855 641.987 328.855 672.987 328.855 672.987 330.855 641.987 330.855 610.987 330.855Z" fill-rule="evenodd"/><text font-family="Jost,Jost_MSFontService,sans-serif" font-weight="400" font-size="24" transform="translate(482.874 328)">125M</text><text font-family="Jost,Jost_MSFontService,sans-serif" font-weight="400" font-size="24" transform="translate(540.373 328)"></text><g><text font-family="Jost,Jost_MSFontService,sans-serif" font-weight="400" font-size="24" transform="translate(321.318 328)">OPT</text></g><text font-family="Jost,Jost_MSFontService,sans-serif" font-weight="400" font-size="24" transform="translate(363.984 328)"></text><g><text font-family="Jost,Jost_MSFontService,sans-serif" font-weight="400" font-size="24" transform="translate(153.73 328)">SPT</text></g><text font-family="Jost,Jost_MSFontService,sans-serif" font-weight="400" font-size="24" transform="translate(197.73 328)"></text><text font-family="Jost,Jost_MSFontService,sans-serif" font-weight="700" font-size="24" transform="translate(1159.53 392)">70.60</text><text font-family="Jost,Jost_MSFontService,sans-serif" font-weight="700" font-size="24" transform="translate(1229.36 392)"></text><text font-family="Jost,Jost_MSFontService,sans-serif" font-weight="400" font-size="24" transform="translate(1050.56 392)">7.10</text><text font-family="Jost,Jost_MSFontService,sans-serif" font-weight="400" font-size="24" transform="translate(1093.06 392)"></text><path d="M1050.98 392.746 1071.98 392.746 1092.98 392.746 1092.98 394.746 1071.98 394.746 1050.98 394.746Z" fill-rule="evenodd"/><text font-family="Jost,Jost_MSFontService,sans-serif" font-weight="400" font-size="24" transform="translate(906.218 392)">16.52</text><text font-family="Jost,Jost_MSFontService,sans-serif" font-weight="400" font-size="24" transform="translate(965.218 392)"></text><path d="M905.804 392.746 935.304 392.746 964.804 392.746 964.804 394.746 935.304 394.746 905.804 394.746Z" fill-rule="evenodd"/><text font-family="Jost,Jost_MSFontService,sans-serif" font-weight="700" font-size="24" transform="translate(763.292 392)">4.21</text><text font-family="Jost,Jost_MSFontService,sans-serif" font-weight="700" font-size="24" transform="translate(815.625 392)"></text><text font-family="Jost,Jost_MSFontService,sans-serif" font-weight="700" font-size="24" transform="translate(610.404 392)">22.11</text><text font-family="Jost,Jost_MSFontService,sans-serif" font-weight="700" font-size="24" transform="translate(673.737 392)"></text><text font-family="Jost,Jost_MSFontService,sans-serif" font-weight="400" font-size="24" transform="translate(484.707 392)">117M</text><text font-family="Jost,Jost_MSFontService,sans-serif" font-weight="400" font-size="24" transform="translate(538.54 392)"></text><g><text font-family="Jost,Jost_MSFontService,sans-serif" font-weight="400" font-size="24" transform="translate(321.318 392)">DialoGPT</text></g><text font-family="Jost,Jost_MSFontService,sans-serif" font-weight="400" font-size="24" transform="translate(416.318 392)"></text><g><text font-family="Jost,Jost_MSFontService,sans-serif" font-weight="700" font-size="24" transform="translate(153.73 392)">SBS</text></g><text font-family="Jost,Jost_MSFontService,sans-serif" font-weight="700" font-size="24" transform="translate(199.73 392)"></text><text font-family="Jost,Jost_MSFontService,sans-serif" font-weight="700" font-size="24" transform="translate(206.897 392)">(Ours)</text><text font-family="Jost,Jost_MSFontService,sans-serif" font-weight="700" font-size="24" transform="translate(277.564 392)"></text><text font-family="Jost,Jost_MSFontService,sans-serif" font-weight="400" font-size="24" transform="translate(1163.45 462)">64.07</text><text font-family="Jost,Jost_MSFontService,sans-serif" font-weight="400" font-size="24" transform="translate(1225.45 462)"></text><text font-family="Jost,Jost_MSFontService,sans-serif" font-weight="400" font-size="24" transform="translate(1050.48 462)">7.87</text><text font-family="Jost,Jost_MSFontService,sans-serif" font-weight="400" font-size="24" transform="translate(1093.15 462)"></text><text font-family="Jost,Jost_MSFontService,sans-serif" font-weight="400" font-size="24" transform="translate(904.884 462)">22.43</text><text font-family="Jost,Jost_MSFontService,sans-serif" font-weight="400" font-size="24" transform="translate(966.551 462)"></text><text font-family="Jost,Jost_MSFontService,sans-serif" font-weight="400" font-size="24" transform="translate(766.375 462)">3.88</text><text font-family="Jost,Jost_MSFontService,sans-serif" font-weight="400" font-size="24" transform="translate(812.542 462)"></text><text font-family="Jost,Jost_MSFontService,sans-serif" font-weight="400" font-size="24" transform="translate(613.154 462)">21.57</text><text font-family="Jost,Jost_MSFontService,sans-serif" font-weight="400" font-size="24" transform="translate(670.987 462)"></text><text font-family="Jost,Jost_MSFontService,sans-serif" font-weight="400" font-size="24" transform="translate(498.374 462)">8B</text><text font-family="Jost,Jost_MSFontService,sans-serif" font-weight="400" font-size="24" transform="translate(524.873 462)"></text><g><text font-family="Jost,Jost_MSFontService,sans-serif" font-weight="400" font-size="24" transform="translate(321.318 462)">Llama 3.1</text></g><text font-family="Jost,Jost_MSFontService,sans-serif" font-weight="400" font-size="24" transform="translate(417.151 462)"></text><g><text font-family="Jost,Jost_MSFontService,sans-serif" font-weight="400" font-size="24" transform="translate(153.73 462)">Baseline</text></g><text font-family="Jost,Jost_MSFontService,sans-serif" font-weight="400" font-size="24" transform="translate(237.23 462)"></text><text font-family="Jost,Jost_MSFontService,sans-serif" font-weight="700" font-size="24" transform="translate(54.4435 551)">Large</text><text font-family="Jost,Jost_MSFontService,sans-serif" font-weight="700" font-size="24" transform="translate(63.7769 580)">LMs</text><text font-family="Jost,Jost_MSFontService,sans-serif" font-weight="700" font-size="24" transform="translate(108.777 580)"></text><text font-family="Jost,Jost_MSFontService,sans-serif" font-weight="400" font-size="24" transform="translate(1165.2 533)">69.77</text><text font-family="Jost,Jost_MSFontService,sans-serif" font-weight="400" font-size="24" transform="translate(1223.7 533)"></text><path d="M1164.95 534.159 1184.62 534.159 1204.28 534.159 1223.95 534.159 1223.95 536.159 1204.28 536.159 1184.62 536.159 1164.95 536.159Z" fill-rule="evenodd"/><text font-family="Jost,Jost_MSFontService,sans-serif" font-weight="700" font-size="24" transform="translate(1045.31 533)">8.30</text><text font-family="Jost,Jost_MSFontService,sans-serif" font-weight="700" font-size="24" transform="translate(1098.31 533)"></text><text font-family="Jost,Jost_MSFontService,sans-serif" font-weight="400" font-size="24" transform="translate(904.718 533)">22.08</text><text font-family="Jost,Jost_MSFontService,sans-serif" font-weight="400" font-size="24" transform="translate(966.718 533)"></text><text font-family="Jost,Jost_MSFontService,sans-serif" font-weight="400" font-size="24" transform="translate(767.292 533)">3.21</text><text font-family="Jost,Jost_MSFontService,sans-serif" font-weight="400" font-size="24" transform="translate(811.625 533)"></text><text font-family="Jost,Jost_MSFontService,sans-serif" font-weight="400" font-size="24" transform="translate(614.737 533)">17.67</text><text font-family="Jost,Jost_MSFontService,sans-serif" font-weight="400" font-size="24" transform="translate(669.404 533)"></text><text font-family="Jost,Jost_MSFontService,sans-serif" font-weight="400" font-size="24" transform="translate(498.624 533)">7B</text><text font-family="Jost,Jost_MSFontService,sans-serif" font-weight="400" font-size="24" transform="translate(524.624 533)"></text><g><text font-family="Jost,Jost_MSFontService,sans-serif" font-weight="400" font-size="24" transform="translate(321.318 533)">Llama 2</text></g><text font-family="Jost,Jost_MSFontService,sans-serif" font-weight="400" font-size="24" transform="translate(400.151 533)"></text><g><text font-family="Jost,Jost_MSFontService,sans-serif" font-weight="400" font-size="24" transform="translate(153.73 533)">SPT</text></g><text font-family="Jost,Jost_MSFontService,sans-serif" font-weight="400" font-size="24" transform="translate(197.73 533)"></text><text font-family="Jost,Jost_MSFontService,sans-serif" font-weight="400" font-size="24" transform="translate(1164.28 604)">59.92</text><text font-family="Jost,Jost_MSFontService,sans-serif" font-weight="400" font-size="24" transform="translate(1224.61 604)"></text><text font-family="Jost,Jost_MSFontService,sans-serif" font-weight="400" font-size="24" transform="translate(1049.73 604)">8.15</text><text font-family="Jost,Jost_MSFontService,sans-serif" font-weight="400" font-size="24" transform="translate(1093.9 604)"></text><path d="M1049.98 604.865 1071.98 604.865 1093.98 604.865 1093.98 606.865 1071.98 606.865 1049.98 606.865Z" fill-rule="evenodd"/><text font-family="Jost,Jost_MSFontService,sans-serif" font-weight="700" font-size="24" transform="translate(900.468 604)">24.76</text><text font-family="Jost,Jost_MSFontService,sans-serif" font-weight="700" font-size="24" transform="translate(970.968 604)"></text><text font-family="Jost,Jost_MSFontService,sans-serif" font-weight="400" font-size="24" transform="translate(766.459 604)">4.14</text><text font-family="Jost,Jost_MSFontService,sans-serif" font-weight="400" font-size="24" transform="translate(812.459 604)"></text><path d="M766.459 604.865 789.459 604.865 812.459 604.865 812.459 606.865 789.459 606.865 766.459 606.865Z" fill-rule="evenodd"/><text font-family="Jost,Jost_MSFontService,sans-serif" font-weight="400" font-size="24" transform="translate(611.237 604)">22.48</text><text font-family="Jost,Jost_MSFontService,sans-serif" font-weight="400" font-size="24" transform="translate(672.904 604)"></text><path d="M610.991 604.865 641.991 604.865 672.991 604.865 672.991 606.865 641.991 606.865 610.991 606.865Z" fill-rule="evenodd"/><text font-family="Jost,Jost_MSFontService,sans-serif" font-weight="400" font-size="24" transform="translate(494.123 604)">11B</text><text font-family="Jost,Jost_MSFontService,sans-serif" font-weight="400" font-size="24" transform="translate(529.123 604)"></text><g><text font-family="Jost,Jost_MSFontService,sans-serif" font-weight="400" font-size="24" transform="translate(321.318 604)">T5</text></g><text font-family="Jost,Jost_MSFontService,sans-serif" font-weight="400" font-size="24" transform="translate(345.984 604)"></text><g><text font-family="Jost,Jost_MSFontService,sans-serif" font-weight="400" font-size="24" transform="translate(153.73 604)">LAPDOG</text></g><text font-family="Jost,Jost_MSFontService,sans-serif" font-weight="400" font-size="24" transform="translate(248.23 604)"></text><text font-family="Jost,Jost_MSFontService,sans-serif" font-weight="700" font-size="24" transform="translate(1163.95 671)">73.11</text><text font-family="Jost,Jost_MSFontService,sans-serif" font-weight="700" font-size="24" transform="translate(1224.95 671)"></text><text font-family="Jost,Jost_MSFontService,sans-serif" font-weight="400" font-size="24" transform="translate(1049.31 671)">7.96</text><text font-family="Jost,Jost_MSFontService,sans-serif" font-weight="400" font-size="24" transform="translate(1094.31 671)"></text><text font-family="Jost,Jost_MSFontService,sans-serif" font-weight="400" font-size="24" transform="translate(904.884 671)">23.09</text><text font-family="Jost,Jost_MSFontService,sans-serif" font-weight="400" font-size="24" transform="translate(966.551 671)"></text><path d="M904.804 672.148 925.471 672.148 946.138 672.148 966.804 672.148 966.804 674.148 946.138 674.148 925.471 674.148 904.804 674.148Z" fill-rule="evenodd"/><text font-family="Jost,Jost_MSFontService,sans-serif" font-weight="700" font-size="24" transform="translate(761.209 671)">4.99</text><text font-family="Jost,Jost_MSFontService,sans-serif" font-weight="700" font-size="24" transform="translate(817.709 671)"></text><text font-family="Jost,Jost_MSFontService,sans-serif" font-weight="700" font-size="24" transform="translate(606.987 671)">25.22</text><text font-family="Jost,Jost_MSFontService,sans-serif" font-weight="700" font-size="24" transform="translate(677.154 671)"></text><text font-family="Jost,Jost_MSFontService,sans-serif" font-weight="400" font-size="24" transform="translate(498.374 671)">8B</text><text font-family="Jost,Jost_MSFontService,sans-serif" font-weight="400" font-size="24" transform="translate(524.873 671)"></text><g><text font-family="Jost,Jost_MSFontService,sans-serif" font-weight="400" font-size="24" transform="translate(321.318 671)">Llama 3.1</text></g><text font-family="Jost,Jost_MSFontService,sans-serif" font-weight="400" font-size="24" transform="translate(417.151 671)"></text><g><text font-family="Jost,Jost_MSFontService,sans-serif" font-weight="700" font-size="24" transform="translate(153.73 671)">SBS</text></g><text font-family="Jost,Jost_MSFontService,sans-serif" font-weight="700" font-size="24" transform="translate(199.73 671)"></text><text font-family="Jost,Jost_MSFontService,sans-serif" font-weight="700" font-size="24" transform="translate(206.897 671)">(Ours)</text><text font-family="Jost,Jost_MSFontService,sans-serif" font-weight="700" font-size="24" transform="translate(277.564 671)"></text><path d="M28 420 1251.15 420" stroke="#000000" stroke-width="8" stroke-miterlimit="8" fill="none" fill-rule="evenodd"/><path d="M28 698 1251.15 698" stroke="#000000" stroke-width="8" stroke-miterlimit="8" fill="none" fill-rule="evenodd"/><path d="M28 24 1251.15 24.0001" stroke="#000000" stroke-width="8" stroke-miterlimit="8" fill="none" fill-rule="evenodd"/></g></svg>